<svg xmlns="http://www.w3.org/2000/svg" viewBox="0 0 66 66"><defs><style>.cls-1{fill:none;stroke:#2c5234;stroke-linecap:round;stroke-linejoin:round;}</style></defs><g id="Layer_2" data-name="Layer 2"><g id="Afterdream"><path class="cls-1" d="M31.83.5C37.82.5,43,3,48.32,4.67,59.81,8.14,65.5,20.85,65.5,33c0,17.94-15.08,32.5-33.67,32.5-6,0-11.67-3.23-16.56-5.9C5.06,54,.5,43.35.5,31.22.5,13.26,13.23.5,31.83.5Z"/><path class="cls-1" d="M30.35,38.57c-.3-1.45-1.73-3.81-2-5.25-.28.29-.5,1.34-.85,1.55-.66-1.28-.69-2.41-1.36-3.7l-.59.63A21.64,21.64,0,0,1,23,27.62l-.41,1.24a8.61,8.61,0,0,1-2.68-2.19l-.13.94-2.61-2.23-.27,1A8,8,0,0,0,14,24.5c.83,1,1.43,2.37,2.49,3.1-.37.08-1.38.14-1.75.23.7,1.24,3.9,4.11,4.85,5.17l-.82.17,3.09,2.5-1.12.75a10,10,0,0,0,2.93,1.23c-.22-.06-.4.24-.32.46S27.7,39,29,39.77a13.94,13.94,0,0,0-3.69-.42l0,.66-2.8-.78.24.56a24.36,24.36,0,0,0-4.07-.44c.11.25-.58.63-.48.88a12.14,12.14,0,0,0-2.9-.17,5.83,5.83,0,0,0,2.31.93l-.46.56,2.44.61-.51.47a6.53,6.53,0,0,1,2.45.67l-.58.76a16.73,16.73,0,0,1,3.6-.24l-.13.62L27.54,44a3.24,3.24,0,0,1-.06.88c1-.44,3.18-1.06,3.18-1.06l-1.75.87a.45.45,0,0,0-.23.2c0,.09,0,.23.13.21a4.61,4.61,0,0,0-1.35.47l.49.37-1.47,1,.36.1a8.51,8.51,0,0,0-1.21,1.48l.48.15a6.3,6.3,0,0,0-1.35,1.07A3.66,3.66,0,0,0,26.11,49l.09.44,1.24-.93,0,.43a4.11,4.11,0,0,1,1.27-.91l.14.57a9.53,9.53,0,0,1,1.29-1.8l.24.3,1-1.68a2.34,2.34,0,0,1,.4.37c.18-.64.35-1.29.53-1.93.17.64.35,1.29.53,1.93a2.34,2.34,0,0,1,.4-.37l1,1.68.25-.3a10.32,10.32,0,0,1,1.28,1.8l.15-.57a4.06,4.06,0,0,1,1.27.91l0-.43,1.24.93.09-.44a3.59,3.59,0,0,0,1.35.75,6.68,6.68,0,0,0-1.36-1.07l.49-.15a9.06,9.06,0,0,0-1.22-1.48l.37-.1-1.47-1,.49-.37a4.61,4.61,0,0,0-1.35-.47c.1,0,.17-.12.13-.21a.45.45,0,0,0-.23-.2L34,43.81s2.18.62,3.18,1.06a3.24,3.24,0,0,1-.06-.88l3.15.45-.13-.62a16.69,16.69,0,0,1,3.6.24l-.58-.76a6.53,6.53,0,0,1,2.45-.67l-.51-.47,2.44-.61L47.12,41a5.83,5.83,0,0,0,2.31-.93,11.62,11.62,0,0,0-2.9.17c.1-.25-.59-.63-.48-.88a24.36,24.36,0,0,0-4.07.44l.24-.56-2.8.78,0-.66a13.94,13.94,0,0,0-3.69.42C37,39,41.3,38.32,41.37,38.11s-.1-.52-.32-.46A10.08,10.08,0,0,0,44,36.42l-1.12-.75L46,33.17,45.13,33c.94-1.06,4.15-3.93,4.85-5.17-.37-.09-1.38-.15-1.75-.23,1.06-.73,1.66-2.13,2.49-3.1a7.85,7.85,0,0,0-2.87,1.84l-.27-1L45,27.61l-.13-.94a8.72,8.72,0,0,1-2.68,2.19l-.41-1.24a21.64,21.64,0,0,1-2.57,4.18l-.59-.62c-.66,1.28-.7,2.42-1.36,3.7-.35-.21-.57-1.27-.85-1.55-.3,1.44-1.73,3.8-2,5.25a51,51,0,0,1,2.39-8.83c-.46,0-.63.62-1.08.51l1.18-3.84h-1a24,24,0,0,1,1.22-5.38l-1.31.65a9.93,9.93,0,0,1-.44-3.9l-.84.63-.37-3.86c-.32.18-.86.35-1.18.53a18,18,0,0,0-.66-3.77c-.07,1.29-.67,2-.74,3.84-.36-.23-.76-.42-1.12-.65A28.6,28.6,0,0,0,29.89,20c-.27-.18-1.05-.45-1.32-.62.18,1.49.74,3.8.91,5.29L28,24.35a27.56,27.56,0,0,0,1.75,5.19c-.14-.22-1-.2-1-.2S29.91,37,30.35,38.57Z"/></g></g></svg>