<svg xmlns="http://www.w3.org/2000/svg" viewBox="0 0 66 63.73"><defs><style>.cls-1{fill:none;stroke:#2c5234;stroke-linecap:round;stroke-linejoin:round;}</style></defs><g id="Layer_2" data-name="Layer 2"><g id="Afterdream"><path class="cls-1" d="M38.24,23.37c-2.09,1.74-12.8,13.49-14.29,15a2,2,0,0,0-.29.36c-.52.79-2.48,3.84-3.54,5.48-.21.32-.42.77-.14,1.06a.6.6,0,0,0,.71.07,64.9,64.9,0,0,0,5.91-4l.11-.11c.84-.87,11.19-11.86,14.22-15.07"/><path class="cls-1" d="M41.7,19.88h.08A5.23,5.23,0,0,1,47,25.11v0a0,0,0,0,1,0,0H36.47a0,0,0,0,1,0,0v0A5.23,5.23,0,0,1,41.7,19.88Z" transform="translate(28.13 -22.92) rotate(45)"/><path class="cls-1" d="M41.74,18.8l5.18-5.18a2.61,2.61,0,0,1,3.69,0h0a2.61,2.61,0,0,1,0,3.69l-5.18,5.18"/><path class="cls-1" d="M19.43,47.91s-.92,2-1.25,2.88a1.29,1.29,0,0,0,1.25,1.86c1.08,0,1.56-.8,1.16-1.88C20.31,50,19.49,48.11,19.43,47.91Z"/><path class="cls-1" d="M56.41,55.29C52.2,50.75,42.56,40.56,34.15,33,23,23,10.61,9.44,10.61,9.44"/><path class="cls-1" d="M65.5,33c0-5.78-2.54-10.77-4.16-15.92C57.86,6,45.17.5,33,.5A32.5,32.5,0,0,0,.5,33c0,5.8,3.24,11.25,5.91,16C12,58.84,22.65,63.23,34.79,63.23,52.74,63.23,65.5,51,65.5,33Z"/></g></g></svg>