<svg xmlns="http://www.w3.org/2000/svg" viewBox="0 0 781.32 858.15"><defs><style>.cls-1{fill:none;stroke:#fff;stroke-linecap:round;stroke-linejoin:round;stroke-width:10px;}</style></defs><g id="Layer_2" data-name="Layer 2"><g id="Layer_8" data-name="Layer 8"><path class="cls-1" d="M348.61,579.83c-6.24-30.47-36.27-80.27-42.51-110.75-5.91,6.07-10.63,28.35-17.82,32.83-13.92-27.09-14.65-51-28.57-78.06L247.23,437a461.11,461.11,0,0,1-54-88.29L184.64,375a184,184,0,0,1-56.15-46.24l-2.78,19.72L70.85,301.63l-5.52,20.13A167.09,167.09,0,0,0,5,283c17.49,20.39,30.14,50,52.24,65.32-7.71,1.77-28.94,3.15-36.64,4.92C35.19,379.33,102.53,440,122.44,462.34L105.24,466l64.85,52.76-23.73,15.8a211.51,211.51,0,0,0,61.55,26c-4.64-1.15-8.31,5.08-6.77,9.61s91.78,19.79,118.07,35.18c-20.29-9.19-77.39-9-77.39-9l.41,13.89-58.89-16.4,5.09,11.8c-21.72-2.45-63.7-11.55-85.44-9.23,2.2,5.34-12.34,13.16-10.14,18.5-18.46-6.73-41.49-1.75-61-3.57a122.08,122.08,0,0,0,48.62,19.63l-9.69,11.8,51.16,12.92-10.59,10a134.54,134.54,0,0,1,51.32,14l-12.09,16.23A337.65,337.65,0,0,1,226,690.7l-2.57,13,66.15-9.42a77.05,77.05,0,0,1-1.15,18.51c20.82-9.16,66.74-22.39,66.74-22.39l-36.82,18.48c-1.93,1-4,2.09-4.83,4.09s.64,4.9,2.77,4.51a95.74,95.74,0,0,0-28.45,9.89l10.22,7.8L267.4,757l7.63,2.14a184.87,184.87,0,0,0-25.48,31.27l10.24,3.06A141.75,141.75,0,0,0,231.38,816a75.38,75.38,0,0,0,28.26-15.68l1.9,9.22,26-19.5.68,9a82.76,82.76,0,0,1,26.59-19.17l3.1,12.09a208.18,208.18,0,0,1,26.85-38.15L350,760l21.14-35.35a47.53,47.53,0,0,1,8.42,7.73l11.07-40.58"/><path class="cls-1" d="M432.71,579.83c15.65-76.68,34.18-151.78,50.07-186.2-9.57,0-13.29,13-22.64,10.72l24.84-81-20.45.22a514.41,514.41,0,0,1,25.66-113.62l-27.64,13.81a210.77,210.77,0,0,1-9.12-82.16l-17.76,13.31L428.1,73.24c-6.77,3.8-18.18,7.36-25,11.16-.33-27.3-5-36.25-13.76-79.4C388,32.06,375.27,47.24,373.9,85.91c-7.64-4.87-16-8.8-23.65-13.67-8.69,32.46-9.94,81.8-11.35,115.59-5.6-3.7-22-9.43-27.64-13.13C315,206.16,326.82,255,330.5,286.43l-31.66-6.83c6.07,24.77,23.31,87.6,36.72,109.46-2.85-4.68-21-4.25-21-4.25s24.86,161.49,34.06,195"/><path class="cls-1" d="M432.71,579.83C439,549.36,469,499.56,475.22,469.08c5.91,6.07,10.63,28.35,17.82,32.83,13.92-27.09,14.65-51,28.57-78.06L534.09,437a461.61,461.61,0,0,0,54-88.29L596.68,375a184,184,0,0,0,56.15-46.24l2.78,19.72,54.86-46.89L716,321.76A167.09,167.09,0,0,1,776.32,283c-17.49,20.39-30.15,50-52.24,65.32,7.7,1.77,28.93,3.15,36.64,4.92-14.6,26.08-81.93,86.79-101.84,109.09l17.2,3.64-64.86,52.76L635,534.54a211.56,211.56,0,0,1-61.56,26c4.65-1.15,8.32,5.08,6.78,9.61s-91.78,19.79-118.07,35.18c20.29-9.19,77.38-9,77.38-9l-.4,13.89L598,593.73l-5.09,11.8c21.72-2.45,63.7-11.55,85.44-9.23-2.2,5.34,12.34,13.16,10.14,18.5,18.46-6.73,41.49-1.75,61-3.57a122.14,122.14,0,0,1-48.62,19.63l9.69,11.8-51.17,12.92,10.6,10a134.54,134.54,0,0,0-51.32,14l12.08,16.23a337.52,337.52,0,0,0-75.5-5.07l2.57,13-66.15-9.42a76.55,76.55,0,0,0,1.15,18.51c-20.82-9.16-66.74-22.39-66.74-22.39l36.82,18.48c1.93,1,4,2.09,4.83,4.09s-.64,4.9-2.77,4.51a95.58,95.58,0,0,1,28.44,9.89l-10.22,7.8L513.92,757l-7.63,2.14a184.87,184.87,0,0,1,25.48,31.27l-10.24,3.06A141.75,141.75,0,0,1,549.94,816a75.38,75.38,0,0,1-28.26-15.68l-1.9,9.22-26-19.5-.68,9a82.7,82.7,0,0,0-26.6-19.17l-3.09,12.09a208.18,208.18,0,0,0-26.85-38.15L431.29,760l-21.14-35.35a47.53,47.53,0,0,0-8.42,7.73L390.66,691.8"/><path class="cls-1" d="M390.66,699.11c-1.53,30.64-6.84,61.29-8.37,91.93-1,20-2,40.14.44,60,3.87.51,12.41,5.44,13.22-2C399.53,816.21,394.67,732,390.66,699.11Z"/></g></g></svg>