<svg xmlns="http://www.w3.org/2000/svg" viewBox="0 0 66 63.73"><defs><style>.cls-1{fill:none;stroke:#2c5234;stroke-linecap:round;stroke-linejoin:round;}</style></defs><g id="Layer_2" data-name="Layer 2"><g id="Afterdream"><path class="cls-1" d="M61.9,15.87c-2.47,1.13-5.48,4-7.48,6.34-2.35,2.78-5,6.23-7.32,7.35A26.88,26.88,0,0,1,42.53,31c-1.74.44-19.63,5.41-21,5.83,1.59,1.62,8.2,2.91,15.9,1.06a25.74,25.74,0,0,0,9.3-4.43,51.34,51.34,0,0,0,5.82-6.24c5.28-6.06,6.74-8.14,10.21-9.82"/><path class="cls-1" d="M21.79,35.44a2.06,2.06,0,0,0,.93-.56c.17-.22.24-.49.39-.72.47-.72,1.51-.83,2.13-1.43s.77-1.83,1.58-2.32a3.89,3.89,0,0,1,.66-.29A7.12,7.12,0,0,0,29.2,29a3.14,3.14,0,0,0,.73-.77c.24-.4.29-.92.6-1.27s1-.52,1.47-.77A5.87,5.87,0,0,0,33.37,25a1,1,0,0,1,.5-.33,1.1,1.1,0,0,1,.76.26,6.5,6.5,0,0,0,2,1c1,.24,2.2,0,3.17.45a5.9,5.9,0,0,0,1.16.56,4.68,4.68,0,0,0,1.24,0,3.24,3.24,0,0,1,1.77.47c.64.4,1.74,1.29,2.47,1.11"/><path class="cls-1" d="M35.85,27.74l0,.07"/><path class="cls-1" d="M35.25,29.73l0,0"/><path class="cls-1" d="M37,28.27a.15.15,0,0,0,0-.13"/><path class="cls-1" d="M28.32,32.18l0,.1"/><path class="cls-1" d="M43.2,29.07l0,.06"/><path class="cls-1" d="M20.44,40.22l-.07.2"/><path class="cls-1" d="M17.5,48.48v.13"/><path class="cls-1" d="M18.83,49.87v.07"/><path class="cls-1" d="M22.17,47.63v.07"/><path class="cls-1" d="M56.93,54.9c-4.21-4.53-14.37-14.17-22.78-21.72C23,23.2,10.61,9.61,10.61,9.61"/><path class="cls-1" d="M65.5,30.73c0,5.78-1.66,10.78-3.28,15.93-3.48,11.1-17,16.57-29.22,16.57A32.5,32.5,0,0,1,.5,30.73c0-5.8,3.24-11.25,5.91-16C12,4.89,22.65.5,34.79.5,52.74.5,65.5,12.78,65.5,30.73Z"/></g></g></svg>