<svg xmlns="http://www.w3.org/2000/svg" viewBox="0 0 66 63.73"><defs><style>.cls-1{fill:#2c5234;}.cls-2{fill:none;stroke:#2c5234;stroke-linecap:round;stroke-linejoin:round;}</style></defs><g id="Layer_2" data-name="Layer 2"><g id="Afterdream"><path class="cls-1" d="M42.71,19.62a26.49,26.49,0,0,0-2,2.18,7.66,7.66,0,0,0-1.6,3.45c-.07.4-.13,1.09-.13,1.09l.14.05L35.28,39H31.59L27.2,24.37h3.64l2.92,10.47,3.1-10.64a2.33,2.33,0,0,0,.21.49,5.25,5.25,0,0,0,.37.49c.19-.48.37-.92.56-1.36a7.68,7.68,0,0,1,1.92-2.48A11.66,11.66,0,0,1,42.71,19.62Z"/><path class="cls-2" d="M36.86,24.2a3.82,3.82,0,0,1-.15-1.35,5,5,0,0,1,1.62-3.4,7,7,0,0,1,3.11-1.82,13.37,13.37,0,0,1,4.49-.58c.5,0,1,.09,1.55.13,0,.07-.06.1-.09.12a7.73,7.73,0,0,0-2,2.47c-.35.81-.55,2-.88,2.8A8,8,0,0,1,43,25.14a4.48,4.48,0,0,1-2.3,1.35,2.69,2.69,0,0,1-1.57-.1l-.14-.05s.06-.69.13-1.09a7.66,7.66,0,0,1,1.6-3.45,26.49,26.49,0,0,1,2-2.18,11.66,11.66,0,0,0-2.79,1.72A7.68,7.68,0,0,0,38,23.82c-.19.44-.37.88-.56,1.36a5.25,5.25,0,0,1-.37-.49,2.33,2.33,0,0,1-.21-.49"/><path class="cls-2" d="M65.5,30.73c0,5.78-2.54,10.77-4.16,15.92C57.86,57.74,45.17,63.23,33,63.23A32.5,32.5,0,0,1,.5,30.73c0-5.8,3.24-11.25,5.91-16C12,4.89,22.65.5,34.79.5,52.74.5,65.5,12.78,65.5,30.73Z"/></g></g></svg>