<svg viewBox="0 0 452.21 511.91" xmlns="http://www.w3.org/2000/svg"><g fill="#fff"><path d="m225.71 375.5q-90.5 0-181 0c-22.88-.02-39.71-13.5-44.12-35.5-1.78-8.89.61-17.22 5.24-24.81q20.77-34.13 41.79-68.09 29.67-48 59.49-95.83c14.37-23.19 28.62-46.46 43-69.64q18.81-30.33 37.8-60.56c15.61-24.76 51.45-28.48 71.14-7 5.44 5.93 9.25 13.4 13.57 20.32q19 30.45 37.9 61 24.33 39.24 48.63 78.48c10.7 17.25 21.48 34.45 32.17 51.7q21.15 34.15 42.23 68.36c4.54 7.36 9.26 14.63 13.57 22.12a38.31 38.31 0 0 1 -10.17 49.66 46 46 0 0 1 -28.76 9.74q-91.23 0-182.47 0zm.62-31.17q89.46 0 178.93 0c5 0 9.82-.28 12.5-5.33s0-8.78-2.58-12.87q-14-21.82-27.63-43.92c-14.35-23.2-28.51-46.53-42.9-69.71-18.69-30.1-37.57-60.08-56.27-90.17-17.83-28.64-35.5-57.42-53.38-86.04a12.05 12.05 0 0 0 -6.13-4.41c-5.32-1.76-9.42.65-12.3 5.16q-7.67 12-15.16 24.06c-18.41 29.9-36.78 59.81-55.25 89.65-16.37 26.45-32.9 52.79-49.34 79.19q-23.34 37.49-46.61 75c-5.24 8.48-10.51 17-15.29 25.71-3.33 6.08.62 12.8 7.48 13.56a54.39 54.39 0 0 0 6 .11z"/><path d="m350 509.1c-13.18 0-25.84.08-38.49-.13-1.3 0-3.12-1.55-3.75-2.84-2.15-4.42-2.71-10.71-6.11-13.12s-9.31-.68-14.14-.71c-5.66 0-11.33.13-17-.05-2.74-.09-4.53.6-5.06 3.46a2 2 0 0 1 -.21.45c-1.78 4.23-2.46 10.13-5.64 12.22s-9 .68-13.67.69c-8 0-16-.05-24-.1-.28 0-.56-.28-1.45-.76.94-2.49 1.87-5.08 2.89-7.63 12.56-31.34 25.2-62.65 37.68-94 3.75-9.41 3.57-9.49 13.59-9.5 9.17 0 18.34.1 27.5-.05 2.9-.05 4.31.77 5.43 3.69 5.46 14.29 11.28 28.44 16.93 42.66q12.52 31.53 25 63.1a18.12 18.12 0 0 1 .5 2.62zm-56-45.88c-3-8.85-5.76-17.18-9.06-27-3.3 9.8-6.12 18.18-9.09 27z"/><path d="m210.15 409.28-23 27.34c-13.88-10.45-28.27-10.25-37.17.27-7 8.32-6.42 25.36 1.23 32.8 8.92 8.69 23.45 10.58 35.66-1.82l23.3 27.3a49.16 49.16 0 0 1 -24.19 14c-17 4.19-33.89 4-50.13-3.95a57.88 57.88 0 0 1 -32.2-57.6c2.72-29.78 23.87-49.56 51.9-53.27 17.15-2.28 33.47.63 48.36 9.95 1.12.7 2.24 1.43 3.29 2.24.88.73 1.67 1.57 2.95 2.74z"/><path d="m156.47 325.86a37.79 37.79 0 0 1 14.37-19.19c-12.87 2.37-25.55 3.54-38.42 1.19s-24.68-6.45-35.08-16c23.77-7.47 46.93-8.95 70.83-2.36-3-1.79-5.93-3.55-8.87-5.36s-5.92-3.7-8.87-5.57c-22.3-14.12-37.73-32.92-40.88-60.06a47.47 47.47 0 0 1 0-4.75c13.24 10.6 25.89 20.49 38.26 30.7a150.65 150.65 0 0 1 32.93 37.16c-13.28-50.11-8.88-97.74 7.52-144.83 10 22.77 13.83 46.83 15.38 71.3s.14 48.87-7.21 72.72c17.59-28.42 45.32-45.83 71.11-67-2.16 39.77-28.88 59.06-58.81 76.22 23.77-6.93 47-5.69 71.38 2-22.81 17.77-47.47 20-74 14.71 6.63 5 11.91 10.75 14.23 18.75-9.09 2.9-13.08.92-26.26-13.39v18.88h-11v-18.34l-1-.95c-5.48 10.2-12.88 16.82-25.61 14.17z"/><path d="m291.45 283.54c-1.75-38.36-3.47-76.07-5.21-114.26h26.84c0 7.25.27 14.51-.05 21.74-1.3 28.95-2.89 57.88-4.11 86.82-.19 4.5-1.48 6.28-6.08 5.77-3.44-.37-6.95-.07-11.39-.07z"/><path d="m300.21 328.48c-9.3-.11-15.47-6-15.43-14.68s6.83-14.79 16.16-14.56c8.36.2 15.92 7.43 15.74 15.05s-7.81 14.3-16.47 14.19z"/></g></svg>