<svg xmlns="http://www.w3.org/2000/svg" viewBox="0 0 66 63.73"><defs><style>.cls-1{fill:#2c5234;}.cls-2{fill:none;stroke:#2c5234;stroke-linecap:round;stroke-linejoin:round;}</style></defs><g id="Layer_2" data-name="Layer 2"><g id="Afterdream"><path class="cls-1" d="M19.67,39H18.13a10.18,10.18,0,0,0-.5-1.67,4.6,4.6,0,0,1-3.95,1.89c-3.64,0-6-2.82-6-7.27,0-4.69,2.45-7.64,6.31-7.64,3.08,0,5.12,1.78,5.64,5l-3.21.43A3.83,3.83,0,0,0,16,28.27,2.27,2.27,0,0,0,14,27.08c-1.8,0-2.8,1.71-2.8,4.81s1.05,4.58,3,4.58A2.24,2.24,0,0,0,16,35.58a2.28,2.28,0,0,0,.46-1.6H13.72V31.26h6Z"/><path class="cls-1" d="M27.35,27.21V39H24.51V24.54h5.27l2.54,8.66L35,24.54h5.27V39H36.87V27.21L33.23,39H30.91Z"/><path class="cls-1" d="M55.33,26.43a9.6,9.6,0,0,1,.05,10.69,5.62,5.62,0,0,1-4.62,2.11,5.33,5.33,0,0,1-4.45-2.09,8.87,8.87,0,0,1-1.67-5.42,8.61,8.61,0,0,1,1.63-5.29,5.57,5.57,0,0,1,4.6-2.11A5.18,5.18,0,0,1,55.33,26.43ZM48.8,28.34a8.45,8.45,0,0,0-.63,3.42c0,3.15.89,4.71,2.7,4.71s2.58-1.54,2.58-4.68-.85-4.71-2.61-4.71A2.1,2.1,0,0,0,48.8,28.34Z"/><path class="cls-2" d="M9.07,8.83C13.28,13.37,23.44,23,31.85,30.55,43,40.53,55.39,54.12,55.39,54.12"/><path class="cls-2" d="M.5,33c0-5.78,1.66-10.78,3.28-15.93C7.26,6,20.83.5,33,.5A32.5,32.5,0,0,1,65.5,33c0,5.8-3.24,11.25-5.91,16C54,58.84,43.35,63.23,31.21,63.23,13.26,63.23.5,51,.5,33Z"/></g></g></svg>