<svg xmlns="http://www.w3.org/2000/svg" viewBox="0 0 66 63.73"><defs><style>.cls-1{fill:none;stroke:#2c5234;stroke-linecap:round;stroke-linejoin:round;}</style></defs><g id="Layer_2" data-name="Layer 2"><g id="Afterdream"><path class="cls-1" d="M37.41,23.62a6,6,0,0,1,2.74-1.54,23.46,23.46,0,0,1,2.34-.43.6.6,0,0,1,.73.7,8.88,8.88,0,0,1-1.37,4.35,6.16,6.16,0,0,1-3.71,2.43,15.09,15.09,0,0,1-1.9.33q-.89.11-.84-.78A7.83,7.83,0,0,1,37.41,23.62Z"/><path class="cls-1" d="M42.91,33a8.25,8.25,0,0,1-2.51,1.74,6.46,6.46,0,0,1-5.22-.17A12.41,12.41,0,0,1,34,34a.58.58,0,0,1-.21-.93,7.53,7.53,0,0,1,5.19-3.29,7.51,7.51,0,0,1,4.12.91,6.12,6.12,0,0,1,.56.31.61.61,0,0,1,.17,1C43.51,32.32,43.2,32.66,42.91,33Z"/><path class="cls-1" d="M32.12,22.43c.21-.17.58-.49,1-.78a.61.61,0,0,1,.94.18c1.65,3,1.84,5.92-.65,8.62a15,15,0,0,1-1.31,1.21.62.62,0,0,1-1-.15,7.84,7.84,0,0,1-1.11-5.38A7.35,7.35,0,0,1,32.12,22.43Z"/><path class="cls-1" d="M37.84,38.07a8.33,8.33,0,0,1-2.5,1.74,6.5,6.5,0,0,1-5.22-.17,11.56,11.56,0,0,1-1.23-.59.6.6,0,0,1-.21-.94,7.55,7.55,0,0,1,5.19-3.28,7.51,7.51,0,0,1,4.12.91,6.28,6.28,0,0,1,.57.31.61.61,0,0,1,.17,1C38.44,37.39,38.14,37.73,37.84,38.07Z"/><path class="cls-1" d="M27.06,27.5c.21-.17.57-.49,1-.78a.61.61,0,0,1,.94.18c1.65,3,1.85,5.92-.65,8.62A13.5,13.5,0,0,1,27,36.72a.61.61,0,0,1-1-.14,7.89,7.89,0,0,1-1.11-5.38A7.26,7.26,0,0,1,27.06,27.5Z"/><path class="cls-1" d="M32.69,43.22A8.33,8.33,0,0,1,30.19,45,6.46,6.46,0,0,1,25,44.79a11.56,11.56,0,0,1-1.23-.59.6.6,0,0,1-.21-.94A7.55,7.55,0,0,1,28.72,40a7.51,7.51,0,0,1,4.12.91,6.28,6.28,0,0,1,.57.31.61.61,0,0,1,.17,1C33.29,42.54,33,42.88,32.69,43.22Z"/><path class="cls-1" d="M21.9,32.65c.22-.17.58-.49,1-.78a.61.61,0,0,1,.94.18c1.65,3,1.85,5.92-.65,8.62a15,15,0,0,1-1.31,1.21.62.62,0,0,1-1-.15,7.89,7.89,0,0,1-1.11-5.38A7.31,7.31,0,0,1,21.9,32.65Z"/><line class="cls-1" x1="44.67" y1="10.66" x2="33.83" y2="21.5"/><line class="cls-1" x1="54.75" y1="20.49" x2="43.98" y2="31.26"/><line class="cls-1" x1="50.17" y1="14.7" x2="43.22" y2="21.64"/><polyline class="cls-1" points="35.22 28.68 13.66 50.24 14.87 51.45 36.55 29.77"/><path class="cls-1" d="M55.14,54.52S44.51,42.74,33.38,32.76,9.32,8.7,9.32,8.7"/><path class="cls-1" d="M.5,30.73C.5,36.51,3,41.5,4.66,46.65,8.14,57.74,20.83,63.23,33,63.23a32.5,32.5,0,0,0,32.5-32.5c0-5.8-3.24-11.25-5.91-16C54,4.89,43.35.5,31.21.5,13.26.5.5,12.78.5,30.73Z"/></g></g></svg>