<svg xmlns="http://www.w3.org/2000/svg" viewBox="0 0 2640 456.35"><defs><style>.cls-1{fill:#fff;}</style></defs><g id="Layer_2" data-name="Layer 2"><g id="Layer_1-2" data-name="Layer 1"><path class="cls-1" d="M387.94,456.35,239.83,348.74,92.34,455.9l-.53-.32,56.31-173.47L0,174.49.09,174h2.7q88.8,0,177.59.05c2.24,0,3.1-.63,3.79-2.77Q211.38,87,238.78,2.87c.26-.83.58-1.64,1-2.87.38,1,.65,1.71.87,2.39Q268.17,87,295.62,171.68c.62,1.92,1.49,2.33,3.34,2.33q88.8-.07,177.6,0h3.51c-1,.87-1.58,1.38-2.18,1.81Q406,228,334.06,280.2c-2.05,1.48-2.37,2.62-1.59,5q27.46,84.14,54.73,168.34C387.44,454.3,387.6,455.06,387.94,456.35Z"/><path class="cls-1" d="M927.66,456.35,779.55,348.74,632.06,455.9l-.53-.32,56.31-173.47L539.72,174.49l.09-.52h2.7q88.8,0,177.6.05c2.23,0,3.09-.63,3.78-2.77Q751.12,87,778.5,2.87c.27-.83.58-1.64,1-2.87.38,1,.65,1.71.87,2.39Q807.9,87,835.34,171.68c.62,1.92,1.49,2.33,3.35,2.33q88.8-.07,177.59,0h3.51c-1,.87-1.58,1.38-2.17,1.81Q945.73,228,873.78,280.2c-2,1.48-2.37,2.62-1.59,5q27.46,84.14,54.73,168.34C927.16,454.3,927.32,455.06,927.66,456.35Z"/><path class="cls-1" d="M1467.73,456.35,1319.62,348.74,1172.13,455.9l-.53-.32,56.31-173.47L1079.79,174.49l.09-.52h2.7q88.8,0,177.6.05c2.23,0,3.09-.63,3.78-2.77Q1291.19,87,1318.57,2.87c.27-.83.58-1.64,1-2.87.38,1,.65,1.71.87,2.39Q1348,87,1375.41,171.68c.62,1.92,1.49,2.33,3.35,2.33q88.8-.07,177.59,0h3.51c-1,.87-1.58,1.38-2.17,1.81Q1485.8,228,1413.85,280.2c-2,1.48-2.37,2.62-1.59,5q27.46,84.14,54.73,168.34C1467.23,454.3,1467.39,455.06,1467.73,456.35Z"/><path class="cls-1" d="M2007.8,456.35,1859.69,348.74,1712.2,455.9l-.53-.32L1768,282.11,1619.86,174.49l.09-.52h2.7q88.8,0,177.6.05c2.23,0,3.09-.63,3.78-2.77Q1831.26,87,1858.64,2.87c.26-.83.58-1.64,1-2.87.38,1,.65,1.71.87,2.39Q1888,87,1915.48,171.68c.62,1.92,1.49,2.33,3.35,2.33q88.79-.07,177.59,0h3.51c-1,.87-1.58,1.38-2.17,1.81Q2025.86,228,1953.92,280.2c-2.05,1.48-2.37,2.62-1.59,5q27.47,84.14,54.73,168.34C2007.3,454.3,2007.46,455.06,2007.8,456.35Z"/><path class="cls-1" d="M2547.87,456.35,2399.76,348.74,2252.27,455.9l-.53-.32,56.31-173.47L2159.93,174.49l.09-.52h2.7q88.8,0,177.6.05c2.23,0,3.09-.63,3.78-2.77Q2371.32,87,2398.71,2.87c.26-.83.58-1.64,1-2.87.38,1,.65,1.71.87,2.39q27.49,84.65,54.94,169.29c.62,1.92,1.49,2.33,3.35,2.33q88.79-.07,177.59,0H2640c-1,.87-1.58,1.38-2.17,1.81Q2565.94,228,2494,280.2c-2,1.48-2.37,2.62-1.59,5q27.46,84.14,54.73,168.34C2547.37,454.3,2547.53,455.06,2547.87,456.35Z"/></g></g></svg>