<svg viewBox="0 0 712 400" xmlns="http://www.w3.org/2000/svg"><path d="m711 400h-711v-400h711zm-306.29-316.72a.31.31 0 0 1 .39.28l1.66 1.22c6.24 4.22 6.24 4.22 3.91 11.5-.7 2.21-1.13 4.51-1.9 7.62 4.61-3.24 8.46-8.08 12.1-7.93 4 .17 7.81 5 11.72 7.69.15.1.52-.12 1.09-.27-1.45-4.69-2.89-9.37-4.38-14.16l12.85-9.52c-4.22 0-7.35-.31-10.39.07-4.43.56-6.71-1-7.52-5.45-.53-2.92-1.87-5.7-3.12-9.34l-4.63 13c-4.65.1-9.3.1-13.94.36-.89.05-1.73 1.12-2.6 1.71l1.86 1.11a.53.53 0 0 1 .55.43l1.3 1.12zm-134.71-.91.23.16 1.77 1.25 7.8 5.54c-1.51 4.84-2.84 9.13-4.18 13.42a36.91 36.91 0 0 0 9.53-5.74c2-1.59 3.53-1.72 5.58 0 2.71 2.29 5.73 4.2 9.86 7.17l-4.57-15 13-9.44c-4.44 0-7.92-.31-11.31.08-3.75.44-5.45-1.26-6.4-4.52s-2-6.32-3.3-10.42l-2.93 7.46c-2.3 5.79-7 6.5-12.37 5.92a14.93 14.93 0 0 0 -4.42.25c-.59.12-1 1-1.54 1.57l2.25 1.42.17.17zm-3.21 228.39 13.05 9.54-4.73 15.05c4.17-3 7.29-5.45 10.71-7.44a5.29 5.29 0 0 1 4.53.07c3.38 2 6.47 4.51 10.55 7.46-1.61-4.89-3.07-8.59-4-12.43a5.21 5.21 0 0 1 1.38-4.27c3-2.66 6.43-4.9 10.61-8-4.6 0-8.08-.27-11.51.07s-4.86-1.13-5.76-4c-1.07-3.38-2.22-6.73-3.65-11.06-.61 1.58-.88 2.13-1.05 2.71-3.55 12.19-3.55 12.19-16.34 12.26zm133.38 0c4.14 3.05 7.49 5.21 10.41 7.85a5.82 5.82 0 0 1 1.58 4.69 94 94 0 0 1 -3.5 10.52l.74.67 11.6-8.27 12.91 9.09c-1.72-5.63-3.18-10.41-4.62-15.14l12.94-9.41c-5.22 0-9.2.27-13.11-.15a5.91 5.91 0 0 1 -4-3c-1.56-3.5-2.52-7.28-4.11-12.12-1.12 3.65-2 6-2.53 8.35-1.1 4.93-3.23 8.1-9.09 7-2.5-.48-5.21-.08-9.27-.08zm-45.63 33.06 13 9.6c-1.81-5.62-3.3-10.26-4.94-15.33l12.74-9.33c-4.9 0-8.7.28-12.42-.13a6.06 6.06 0 0 1 -4.16-2.92c-1.65-3.65-2.66-7.6-4.22-12.32-1.49 4.33-3 7.62-3.72 11.08s-2.28 4.69-5.78 4.36-6.79-.07-11.3-.07l12.73 9.46c-1.64 5-3.14 9.61-5 15.21zm136.13-215h-4.44c-11-.06-11-.06-14.6-10-.5-1.36-1-2.72-1.78-4.73-1.1 3.08-2.4 5.48-2.77 8-.79 5.34-3.53 7.21-8.77 6.43-2.81-.41-5.73-.07-9.5-.07 1.87 1.54 2.84 2.41 3.88 3.18 9.45 7 9.45 7 5.06 18.37-.09.22 0 .52.21 2l12.04-8 10.79 8.07 1.07-.61a64.92 64.92 0 0 0 -2.06-6.79c-1.9-4.47-2-8 3.21-10.44 2.49-1.11 4.51-3.14 7.61-5.42zm18.58 66.26h-4.14c-3.82 0-8.58 1.31-11.18-.48s-3.22-6.75-4.69-10.31c-.43-1.05-.82-2.11-1.53-3.92-1.34 4.27-2.54 7.84-3.55 11.47-.68 2.42-1.92 3.46-4.56 3.3-3.89-.23-7.81-.06-13-.06 3.79 2.77 6.37 5.1 9.34 6.72 3.53 1.93 3.94 4.19 2.42 7.66-1.31 3-2.06 6.16-3.42 10.42 3.95-2.82 7.07-4.72 9.77-7.08 2.4-2.1 4.11-1.84 6.4.1 2.64 2.23 5.65 4 9.6 6.77-1.55-4.87-2.43-8.4-3.79-11.74-1.12-2.73-.4-4.18 2-5.64 3.16-1.93 6.08-4.29 10.28-7.22zm-291.51-66.63c1.69 1.17 2.22 1.5 2.72 1.89 3.39 2.63 8.57 4.68 9.65 8.06s-1.81 8.19-3.4 13.94l12.6-8.26c1.76 1.24 3.52 2.46 5.27 3.71s3.37 2.45 5 3.68l1.22-.69a40.19 40.19 0 0 0 -1.71-6.22c-2-4.58-1.62-8 3.36-10.35 2.39-1.14 4.36-3.15 7.38-5.4h-6.5c-9 0-9 0-11.92-8.74-.61-1.83-1.43-3.58-2.39-6-1.11 3.22-2.43 5.79-2.83 8.49-.75 5-3.42 6.5-8.15 5.92-2.85-.32-5.83-.03-10.3-.03zm-17.86 66.62c4.17 3 7.14 5.29 10.29 7.31 2.27 1.47 3.16 2.94 2 5.71-1.37 3.28-2.23 6.78-3.78 11.67 4.17-3 7.16-5 9.94-7.21 2-1.62 3.56-1.76 5.64-.07 2.8 2.3 5.89 4.26 8.85 6.36a33.08 33.08 0 0 0 -2.46-10.53c-1.15-2.81-.62-4.51 2-6.09 3.18-1.9 6.11-4.24 10.23-7.15h-5.19c-10.78 0-10.77 0-14.49-10-.51-1.35-1.07-2.68-1.82-4.56-1.06 3.2-2.28 5.78-2.75 8.5-.81 4.67-2.92 6.86-7.92 6.1-2.89-.4-5.93-.04-10.54-.04zm174.12-131.98-.42-.91c-3 0-5.94-.19-8.89 0-3.77.3-5.77-1.1-6.62-4.9-.75-3.32-2.21-6.49-3.61-10.46l-5 15.3h-15.76c4.17 3 7.21 5.14 10.27 7.28 2 1.39 2.73 2.74 1.51 5.35-1.6 3.46-2.43 7.27-3.89 11.83l12.9-9.3 13 9.35c-1.85-5.69-3.37-10.33-5-15.27zm-154.82 198 .43 1.67c.61.49 1.19 1 1.83 1.46 10.26 7.25 10.25 7.25 5.55 19-.07.17.23.48.82 1.59l11.5-7.51 12.82 9c-1.51-4.61-3-8.29-3.81-12.12a5.94 5.94 0 0 1 1.58-4.77c2.74-2.5 5.95-4.47 10.12-7.49-3.44 0-5.52 0-7.59 0-10.08-.17-7.65 1.43-10.72-7.74-.72-2.13-1.5-4.24-2.32-6.57-.45.57-.77.81-.81 1.08-1.72 10.82-6.91 16.71-19.43 12.4zm230.69 0c.13.54.26 1.08.4 1.62a14.38 14.38 0 0 0 1.36 1.23c10.73 7.66 10.73 7.66 5.69 20.09 5.55.06 8.11-5 12.75-6.66l12.8 9c-1.3-3.82-2.09-6.83-3.34-9.63-1.75-3.94-1.28-6.77 2.78-8.95 2.61-1.39 4.88-3.42 8.33-5.91h-4c-11.35-.07-11.35-.07-15.24-10.45-.45-1.21-.92-2.42-1.42-3.73-.35.39-.71.6-.75.86-1.78 10.7-6.71 16.98-19.39 12.53z" fill="#003398"/><path d="m711 400v-400a17.63 17.63 0 0 1 1 4q.07 87.26 0 174.5 0 108.5 0 217a21.92 21.92 0 0 1 -1 4.5z" fill="#fefefe"/><path d="m266.74 310.76h3.82c12.79-.07 12.79-.07 16.34-12.26.17-.58.44-1.13 1.05-2.71 1.43 4.33 2.58 7.68 3.65 11.06.9 2.86 2.46 4.32 5.76 4s6.91-.07 11.51-.07c-4.18 3.08-7.58 5.32-10.61 8a5.21 5.21 0 0 0 -1.38 4.27c.9 3.84 2.36 7.54 4 12.43-4.08-2.95-7.17-5.45-10.55-7.46a5.29 5.29 0 0 0 -4.53-.07c-3.42 2-6.54 4.49-10.71 7.44l4.73-15.05z" fill="#f6ca05"/><path d="m400.12 310.76c4.06 0 6.77-.4 9.31.08 5.86 1.09 8-2.08 9.09-7 .54-2.39 1.41-4.7 2.53-8.35 1.59 4.84 2.55 8.62 4.11 12.12a5.91 5.91 0 0 0 4 3c3.91.42 7.89.15 13.11.15l-12.94 9.41c1.44 4.73 2.9 9.51 4.62 15.14l-12.95-9.09-11.67 8.27-.74-.67a94 94 0 0 0 3.5-10.52 5.82 5.82 0 0 0 -1.58-4.69c-2.9-2.61-6.25-4.8-10.39-7.85z" fill="#f7cb05"/><path d="m354.49 343.82-13 9.61c1.84-5.6 3.34-10.21 5-15.21l-12.73-9.46c4.51 0 7.93-.25 11.3.07s5-.94 5.78-4.36 2.23-6.75 3.72-11.08c1.56 4.72 2.57 8.67 4.22 12.32a6.06 6.06 0 0 0 4.16 2.92c3.72.41 7.52.13 12.42.13l-12.74 9.33c1.64 5.07 3.13 9.71 4.94 15.33z" fill="#f5ca05"/><path d="m490.62 128.81c-3.1 2.28-5.12 4.31-7.57 5.45-5.19 2.4-5.11 6-3.21 10.44a64.92 64.92 0 0 1 2.06 6.79l-1.07.61-10.83-8.1-12.09 8c-.17-1.46-.3-1.76-.21-2 4.39-11.38 4.39-11.37-5.06-18.37-1-.77-2-1.64-3.88-3.18 3.77 0 6.69-.34 9.5.07 5.24.78 8-1.09 8.77-6.43.37-2.54 1.67-4.94 2.77-8 .76 2 1.28 3.37 1.78 4.73 3.64 10 3.64 10 14.6 10z" fill="#f4c906"/><path d="m416.49 78 4.63-13c1.25 3.64 2.59 6.42 3.12 9.34.81 4.49 3.09 6 7.52 5.45 3-.38 6.17-.07 10.39-.07l-12.85 9.51c1.49 4.79 2.93 9.47 4.38 14.16-.57.15-.94.37-1.09.27-3.91-2.74-7.71-7.52-11.72-7.69-3.64-.15-7.49 4.69-12.1 7.93.77-3.11 1.2-5.41 1.9-7.62 2.33-7.28 2.33-7.28-3.91-11.5l-1.66-1.22a.31.31 0 0 0 -.39-.28l-1-.54-1.3-1.12a.53.53 0 0 0 -.55-.43 2.78 2.78 0 0 1 -.29-.41 1.59 1.59 0 0 1 -.1-.39c3.75-.21 7.52-.31 11.25-.72 1.28-.17 2.5-1.1 3.77-1.67z" fill="#f6ca05"/><path d="m509.2 195.07c-4.17 3-7.12 5.29-10.31 7.21-2.42 1.46-3.14 2.91-2 5.64 1.36 3.34 2.24 6.87 3.79 11.74-4-2.74-7-4.54-9.6-6.77-2.29-1.94-4-2.2-6.4-.1-2.7 2.36-5.82 4.26-9.77 7.08 1.36-4.26 2.11-7.46 3.42-10.42 1.52-3.47 1.11-5.73-2.42-7.66-3-1.62-5.55-3.95-9.34-6.72 5.19 0 9.11-.17 13 .06 2.64.16 3.88-.88 4.56-3.3 1-3.63 2.21-7.2 3.55-11.47.71 1.81 1.1 2.87 1.53 3.92 1.47 3.56 2 8.48 4.69 10.31s7.36.45 11.18.48z" fill="#f5c906"/><path d="m217.74 128.45c4.47 0 7.45-.29 10.35.07 4.73.58 7.4-.91 8.15-5.92.4-2.7 1.72-5.27 2.83-8.49 1 2.38 1.78 4.13 2.39 6 2.91 8.74 2.89 8.74 11.92 8.74h6.5c-3 2.25-5 4.26-7.38 5.4-5 2.37-5.41 5.77-3.36 10.35a40.19 40.19 0 0 1 1.71 6.22l-1.22.69c-1.68-1.23-3.35-2.47-5-3.68s-3.51-2.47-5.27-3.71l-12.6 8.26c1.59-5.75 4.5-10.49 3.4-13.94s-6.26-5.43-9.65-8.06c-.51-.38-1.08-.76-2.77-1.93z" fill="#f4c906"/><path d="m199.88 195.07c4.61 0 7.65-.36 10.57.08 5 .76 7.11-1.43 7.92-6.1.47-2.72 1.69-5.3 2.75-8.5.75 1.88 1.31 3.21 1.82 4.56 3.72 10 3.71 10 14.49 10h5.19c-4.12 2.91-7.05 5.25-10.23 7.15-2.63 1.58-3.16 3.28-2 6.09a33.08 33.08 0 0 1 2.46 10.53c-3-2.1-6.05-4.06-8.85-6.36-2.08-1.69-3.64-1.55-5.64.07-2.78 2.24-5.77 4.21-9.94 7.21 1.55-4.89 2.41-8.39 3.78-11.67 1.14-2.77.25-4.24-2-5.71-3.2-2.06-6.15-4.36-10.32-7.35z" fill="#f5c906"/><path d="m285.11 72.31 2.89-7.46c1.31 4.1 2.37 7.24 3.3 10.42s2.65 5 6.4 4.52c3.39-.39 6.87-.08 11.31-.08l-13 9.44 4.57 15c-4.13-3-7.15-4.88-9.86-7.17-2.05-1.74-3.6-1.61-5.58 0a36.91 36.91 0 0 1 -9.56 5.77c1.34-4.29 2.67-8.58 4.18-13.42l-7.76-5.55-1.79-1.25-.23-.16-.78-.71-.17-.17c.74-.59 1.45-1.66 2.21-1.69 3.92-.18 7.85-.08 12-.08.66-2.72 1.26-5.05 1.87-7.41z" fill="#f6ca05"/><path d="m374 63.09-11.42 8.32c1.61 4.94 3.13 9.58 5 15.27l-13-9.35-12.9 9.3c1.46-4.56 2.29-8.37 3.89-11.83 1.22-2.61.47-4-1.51-5.35-3.06-2.14-6.1-4.32-10.27-7.28h15.71l5-15.3c1.4 4 2.86 7.14 3.61 10.46.85 3.8 2.85 5.2 6.62 4.9 2.95-.24 5.92 0 8.89 0z" fill="#f5ca05"/><path d="m219.15 261.09c12.52 4.31 17.71-1.58 19.4-12.4 0-.27.36-.51.81-1.08.82 2.33 1.6 4.44 2.32 6.57 3.07 9.17.64 7.57 10.72 7.74h7.59c-4.17 3-7.38 5-10.12 7.49a5.94 5.94 0 0 0 -1.58 4.77c.81 3.83 2.3 7.51 3.81 12.12l-12.82-9-11.5 7.51c-.59-1.11-.89-1.42-.82-1.59 4.7-11.75 4.71-11.75-5.55-19-.64-.45-1.22-1-1.83-1.46z" fill="#f7ca04"/><path d="m449.84 261.09c12.68 4.45 17.61-1.83 19.4-12.49 0-.26.4-.47.75-.86.5 1.31 1 2.52 1.42 3.73 3.89 10.38 3.89 10.38 15.24 10.45h4c-3.45 2.49-5.72 4.52-8.33 5.91-4.06 2.18-4.53 5-2.78 8.95 1.25 2.8 2 5.81 3.34 9.63l-12.8-9c-4.64 1.65-7.2 6.72-12.75 6.66 5-12.43 5-12.43-5.69-20.09a14.38 14.38 0 0 1 -1.36-1.23c-.18-.58-.28-1.12-.44-1.66z" fill="#f7ca04"/><path d="m285.11 72.31c-.61 2.36-1.21 4.72-1.91 7.41-4.14 0-8.07-.1-12 .08-.76 0-1.47 1.1-2.21 1.69l-2.22-1.44c.51-.54 1-1.45 1.54-1.57a14.93 14.93 0 0 1 4.42-.25c5.39.58 10.08-.13 12.38-5.92z" fill="#364685"/><path d="m416.49 78c-1.27.58-2.5 1.51-3.82 1.66-3.73.41-7.5.51-11.25.72a1.59 1.59 0 0 0 .1.39 2.78 2.78 0 0 0 .29.41l-1.81-1.12c.87-.59 1.71-1.66 2.6-1.71 4.59-.26 9.24-.26 13.89-.35z" fill="#364784"/><path d="m402.36 81.6 1.3 1.12z" fill="#364784"/><path d="m270.18 82.53 1.82 1.25z" fill="#364685"/><path d="m405.1 83.56 1.66 1.22z" fill="#364784"/><path d="m269.17 81.66.78.71z" fill="#364685"/><path d="m403.69 82.74 1 .54z" fill="#364784"/></svg>