<svg xmlns="http://www.w3.org/2000/svg" viewBox="0 0 712 400"><defs><style>.cls-1{fill:#ce142b;}.cls-2{fill:#fcfbfc;}.cls-3{fill:#fcfbfb;}.cls-4{fill:#fcfcfc;}.cls-5{fill:#01247d;}.cls-6{fill:#cf162d;}.cls-7{fill:#cb031c;}.cls-8{fill:#375399;}.cls-9{fill:#1f3c8b;}.cls-10{fill:#183888;}.cls-11{fill:#6076ad;}.cls-12{fill:#e06c7b;}.cls-13{fill:#d74052;}.cls-14{fill:#d2283d;}.cls-15{fill:#d84557;}.cls-16{fill:#001373;}.cls-17{fill:#011876;}.cls-18{fill:#cc081f;}.cls-19{fill:#001172;}</style></defs><g id="Layer_2" data-name="Layer 2"><g id="Layer_1-2" data-name="Layer 1"><path class="cls-1" d="M0,239v-1a39.53,39.53,0,0,0,.88-5.76Q1,196.15,1,160.06c.5-.05,1-.14,1.49-.14l317.38.05c.7-2,2-3.95,2-5.93q.22-76.6.2-153.21,31.06,0,62.11,0A26.81,26.81,0,0,0,389,0h2c.13,2,.38,4,.38,6q0,74,0,147.93v6H705c2,0,4,.11,6,.16l-.08,79.66c-2,0-4,.15-6,.15H391.39v6.69q0,73.23,0,146.47c0,2-.17,4-.26,6L322,399q0-76.44-.08-152.9c0-2-1.18-4.09-1.81-6.13-2,0-4-.07-6-.07q-154.26,0-308.51,0A36,36,0,0,1,0,239Z"/><path class="cls-2" d="M391.12,399c.09-2,.26-4,.26-6q0-73.23,0-146.47v-6.69H704.87c2,0,4-.1,6-.15L712,240v27l-1,0c-1.15-.09-2.31-.27-3.46-.27H545.19c-.92,0-1.83.11-4.2.26l4.64,2.24c2,1.23,3.86,2.53,5.87,3.66q76.44,43,152.91,85.9c2.15,1.21,4.41,2.2,6.62,3.3l1-.06v16c-1.28-.76-2.53-1.55-3.83-2.27Q612.63,322,517.06,268.33a10.23,10.23,0,0,0-4.59-1.68c-10.82,0-21.64.12-32.46.22h-4.94l4.79,2.64c1.27.79,2.5,1.63,3.79,2.36q111,62.49,222,125A46.28,46.28,0,0,1,710,400H645l-3-1.9c-1.27-.78-2.52-1.6-3.82-2.33Q551.38,347,464.6,298.25c-15.8-8.86-31.67-17.59-47.51-26.37l0,0-1.5-.74c-.12,1-.24,1.94-.37,2.91-.05,22.65-.16,45.31-.16,68,0,19,.13,38,.19,57L415,400H391Z"/><path class="cls-2" d="M319.89,160,2.51,159.92c-.5,0-1,.09-1.49.14L0,160V133l1,0a19,19,0,0,0,2,.2q81.93,0,163.86,0a24.39,24.39,0,0,0,3.46-.61l-4.06-1.73c-1.53-1-3-2-4.58-2.9q-47.4-26.64-94.83-53.25-32.19-18-64.44-36L0,38V23c1.65.73,3.38,1.33,4.94,2.21Q98.13,77.55,191.3,129.91c1.57.89,3.26,1.58,4.9,2.36.55.33,1.1.95,1.65,1,12.49.05,25,0,37.49,0l.17-.71-3.33-1.66c-1.67-1.05-3.31-2.17-5-3.14L5.43,3C3.89,2.1,2.48,1,1,0H67l3,2.06c1.14.69,2.25,1.42,3.4,2.07Q149.74,47.06,226.12,90q33.51,18.81,67.1,37.46l1.43.84,1.71,0c0-18.32.12-36.64.11-55q0-36.22-.17-72.45c0-.12.16-.28.11-.35A2.61,2.61,0,0,0,296,0h24c.08.82.22,1.65.22,2.47q0,77,0,154A33.47,33.47,0,0,1,319.89,160Z"/><path class="cls-3" d="M710.94,160.08c-2-.05-4-.16-6-.16H391.39v-6q0-74,0-147.93c0-2-.25-4-.38-5.95h24l.29,1.05q0,63.45-.05,126.9l.45,1,1.44-.86-.05,0C437,117,456.91,106,476.76,94.87q82.86-46.54,165.66-93.2L645,0h26a1.43,1.43,0,0,1-.16.93c-.9.4-1.84.74-2.7,1.23Q553.68,66.57,439.25,131c-.75.42-1.41,1-3.18,2.25,12.13,0,22.92.2,33.7-.12a22.2,22.2,0,0,0,9.82-2.59q77.58-43.35,155-87Q671.35,22.87,708,2.05l3-2a8.05,8.05,0,0,1,1,2.5c.06,11.83,0,23.67,0,35.5l-.93-.08c-1.49.68-3,1.27-4.46,2.07q-40.25,22.56-80.46,45.17t-80.33,45.36l-4.1,2.3a21.45,21.45,0,0,0,2.25.4H709.52A10.62,10.62,0,0,0,711,133h1v27Z"/><path class="cls-4" d="M0,239a36,36,0,0,0,5.6.86q154.25.06,308.51,0c2,0,4,0,6,.07L320.2,399a4.78,4.78,0,0,1-.2,1H296l.3-.82c.06-1,.17-2,.17-3q0-60.9,0-121.8c0-1.07-.19-2.14-.34-3.82l-2.91,1.9c-1.33.68-2.69,1.31-4,2q-59.42,33.38-118.82,66.77Q120.16,369.58,70,397.92L67,400H41l-.06-1c1.48-.74,3-1.42,4.43-2.23q83-46.65,166-93.33C231.63,292,251.81,280.48,272,269l2.87-1.38-.2-.7H271c-10-.09-20-.35-29.92-.16a18.59,18.59,0,0,0-8.41,2.25Q118.72,333,4.9,397.14A38.48,38.48,0,0,0,1,400a7.58,7.58,0,0,1-1-2.5C0,385.67,0,373.83,0,362l2.37-.77c1.77-.9,3.57-1.74,5.3-2.71Q57.92,330.3,108.12,302q29.09-16.4,58.07-33l3.21-1.54-.28-.86H5c-1.32,0-2.65.15-4,.23L0,267Z"/><path class="cls-5" d="M642.42,1.67q-82.83,46.61-165.66,93.2C456.91,106,437,117,417.08,128.1Q417.05,64.55,417,1q108.62,0,217.23,0A48.88,48.88,0,0,0,641,0h1Z"/><path class="cls-6" d="M1,400a38.48,38.48,0,0,1,3.89-2.86Q118.74,333,232.66,269a18.59,18.59,0,0,1,8.41-2.25c10-.19,19.95.07,29.92.16l1,2.08c-20.22,11.47-40.4,23-60.66,34.41q-83,46.71-166,93.33c-1.44.81-2.95,1.49-4.43,2.23L40,400H38a32,32,0,0,0-5.25-.95q-11.23-.15-22.49,0A46.28,46.28,0,0,0,4,400Z"/><path class="cls-6" d="M710,400a46.28,46.28,0,0,0-4.3-3.14q-111-62.52-222-125c-1.29-.73-2.52-1.57-3.79-2.36l.15-2.64c10.82-.1,21.64-.27,32.46-.22a10.23,10.23,0,0,1,4.59,1.68q95.57,53.66,191.1,107.4c1.3.72,2.55,1.51,3.83,2.27,0,6.67.06,13.33-.09,20C711.89,398.68,710.66,399.33,710,400Z"/><path class="cls-6" d="M196.2,132.27c-1.64-.78-3.33-1.47-4.9-2.36Q98.12,77.57,5,25.21C3.39,24.33,1.66,23.73,0,23c0-7,0-14,0-21,0-.67.62-1.33,1-2C2.48,1,3.89,2.1,5.43,3L227.15,127.76c1.72,1,3.36,2.09,5,3.14a49,49,0,0,1-6.75,1C215.69,132.15,205.94,132.18,196.2,132.27Z"/><path class="cls-7" d="M319.89,160a33.47,33.47,0,0,0,.33-3.46q0-77,0-154c0-.82-.14-1.65-.22-2.47h2c0,.28.08.56.11.83Q322,77.44,321.91,154C321.9,156,320.59,158,319.89,160Z"/><path class="cls-7" d="M320,400a4.78,4.78,0,0,0,.2-1L320.11,240c.63,2,1.8,4.09,1.81,6.13q.15,76.46.08,152.9l-1,1Z"/><path class="cls-8" d="M296.3,399.18l-.3.82H67l3-2.08c1.86.41,3.73,1.18,5.59,1.18q109.7.09,219.39,0Z"/><path class="cls-9" d="M642,398.1l3,1.9H415l.29-1.06L417,399q109.59,0,219.19,0A37,37,0,0,0,642,398.1Z"/><path class="cls-8" d="M296,0a2.61,2.61,0,0,1,.41.47c0,.07-.07.23-.11.35l-1.36,0Q185.26.86,75.57.9c-1.86,0-3.73.75-5.6,1.16L67,0Z"/><path class="cls-9" d="M641,0a48.88,48.88,0,0,1-6.75.93Q525.63,1,417,1l-1.72.07L415,0Z"/><path class="cls-10" d="M1,133l-1,0V38l2.38.75c-.46,2-1.32,4-1.33,6.06Q.94,88.4,1,132Z"/><path class="cls-10" d="M2.38,361.23,0,362V267l1-.07L1,268q0,43.58,0,87.17C1.07,357.19,1.92,359.21,2.38,361.23Z"/><path class="cls-11" d="M711.06,37.92,712,38v95h-1l-.15-1c0-2.15.14-4.31.15-6.46Q711,81.74,711.06,37.92Z"/><path class="cls-11" d="M712,362l-1,.06q-.09-47-.19-94.07l.17-1,1,0Z"/><path class="cls-12" d="M710.94,160.08l1-.08v80l-1.13-.26Z"/><path class="cls-13" d="M0,160l1,.06q0,36.09-.13,72.18A39.53,39.53,0,0,1,0,238Z"/><path class="cls-14" d="M321,400l1-1,69.12,0-.12,1Z"/><path class="cls-15" d="M322.11.83c0-.27-.07-.55-.11-.83h67a26.81,26.81,0,0,1-4.78.85Q353.17.91,322.11.83Z"/><path class="cls-14" d="M670.83.93A1.43,1.43,0,0,0,671,0h40l-3,2.05a28.87,28.87,0,0,0-5.21-1C692.14.92,681.48,1,670.83.93Z"/><path class="cls-14" d="M4,400a46.28,46.28,0,0,1,6.25-.95q11.25-.17,22.49,0A32,32,0,0,1,38,400Z"/><path class="cls-9" d="M642.42,1.67,642,0h3Z"/><path class="cls-14" d="M40,400l.94-1,.06,1Z"/><path class="cls-5" d="M642,398.1a37,37,0,0,1-5.76.89Q526.61,399,417,399q0-63.57.08-127.14c15.84,8.78,31.71,17.51,47.51,26.37Q551.39,347,638.14,395.77C639.44,396.5,640.69,397.32,642,398.1Z"/><path class="cls-5" d="M710.84,268q.09,47,.19,94.07c-2.21-1.1-4.47-2.09-6.62-3.3q-76.47-42.92-152.91-85.9c-2-1.13-3.92-2.43-5.87-3.66,2.59-.4,5.19-1.14,7.78-1.15Q632.13,267.95,710.84,268Z"/><path class="cls-16" d="M417.09,271.88Q417,335.45,417,399l-1.72-.08c-.06-19-.18-38-.19-57,0-22.66.11-45.32.16-68l1.87-2.17Z"/><path class="cls-17" d="M710.84,268q-78.72,0-157.43.06c-2.59,0-5.19.75-7.78,1.15L541,267c2.37-.15,3.28-.26,4.2-.26H707.55c1.15,0,2.31.18,3.46.27Z"/><path class="cls-18" d="M480,266.87l-.15,2.64-4.79-2.64Z"/><path class="cls-9" d="M417.13,271.84,415.26,274c.13-1,.25-1.94.37-2.91Z"/><path class="cls-5" d="M70,2.06C71.84,1.65,73.71.9,75.57.9q109.7-.09,219.37,0,0,60.57,0,121.16c0,1.8-1.11,3.59-1.7,5.39Q259.67,108.7,226.12,90,149.73,47.09,73.37,4.13C72.22,3.48,71.11,2.75,70,2.06Z"/><path class="cls-5" d="M1,132q0-43.59,0-87.19c0-2,.87-4,1.33-6.06q32.22,18,64.44,36Q114.28,101.3,161.66,128c1.57.89,3.05,1.93,4.58,2.9a55,55,0,0,1-7.8,1.08Q79.72,132.06,1,132Z"/><path class="cls-17" d="M1,132q78.71,0,157.42-.05a55,55,0,0,0,7.8-1.08l4.06,1.73a24.39,24.39,0,0,1-3.46.61q-81.93,0-163.86,0a19,19,0,0,1-2-.2Z"/><path class="cls-19" d="M293.22,127.42c.59-1.8,1.7-3.59,1.7-5.39q.12-60.58,0-121.16L296.3.82q.09,36.22.17,72.45c0,18.32-.07,36.64-.11,55l-1.71,0Z"/><path class="cls-18" d="M196.2,132.27c9.74-.09,19.49-.12,29.23-.32a49,49,0,0,0,6.75-1l3.33,1.66-.17.71c-12.5,0-25,0-37.49,0C197.3,133.22,196.75,132.6,196.2,132.27Z"/><path class="cls-8" d="M294.65,128.26l1.71,0Z"/><path class="cls-5" d="M711.06,37.92q0,43.81-.07,87.63c0,2.15-.1,4.31-.15,6.46q-79.26,0-158.52-.07c-2.17,0-4.34-.93-6.51-1.42Q586,107.84,626.14,85.16T706.6,40C708,39.19,709.57,38.6,711.06,37.92Z"/><path class="cls-6" d="M670.83.93c10.65,0,21.31,0,32,.11a28.87,28.87,0,0,1,5.21,1q-36.71,20.76-73.43,41.5-77.45,43.59-155,87a22.2,22.2,0,0,1-9.82,2.59c-10.78.32-21.57.12-33.7.12,1.77-1.26,2.43-1.83,3.18-2.25Q553.68,66.58,668.13,2.16C669,1.67,669.93,1.33,670.83.93Z"/><path class="cls-16" d="M415.29,1.05,417,1q0,63.56.07,127.12l.05,0-1.89-.18Q415.27,64.5,415.29,1.05Z"/><path class="cls-17" d="M545.81,130.52c2.17.49,4.34,1.41,6.51,1.42q79.26.12,158.52.07l.15,1a10.62,10.62,0,0,1-1.47.21H544a21.45,21.45,0,0,1-2.25-.4Z"/><path class="cls-9" d="M415.24,128l1.89.18-1.44.86Z"/><path class="cls-5" d="M294.94,399.14q-109.69,0-219.39,0c-1.86,0-3.73-.77-5.59-1.18q50.22-28.31,100.45-56.63,59.39-33.42,118.82-66.77c1.3-.73,2.66-1.36,4-2,.59,1.8,1.7,3.61,1.7,5.41Q295,338.52,294.94,399.14Z"/><path class="cls-5" d="M2.38,361.23c-.46-2-1.31-4-1.32-6.06Q.94,311.58,1,268q78.68,0,157.36.05a57.84,57.84,0,0,1,7.81,1q-29,16.49-58.07,33Q57.93,330.35,7.68,358.52C6,359.49,4.15,360.33,2.38,361.23Z"/><path class="cls-17" d="M166.19,269.09a57.84,57.84,0,0,0-7.81-1Q79.71,267.95,1,268l0-1.07c1.32-.08,2.65-.23,4-.23H169.12l.28.86Z"/><path class="cls-19" d="M294.94,399.14q0-60.63,0-121.25c0-1.8-1.11-3.61-1.7-5.41l2.91-1.9c.15,1.68.34,2.75.34,3.82q0,60.9,0,121.8c0,1-.11,2-.17,3Z"/><path class="cls-18" d="M272,269l-1-2.08h3.71l.2.7Z"/></g></g></svg>