<svg xmlns="http://www.w3.org/2000/svg" viewBox="0 0 712 400"><defs><style>.cls-1{fill:#3d3c6f;}.cls-2{fill:#fdfafb;}.cls-3{fill:#fdfafa;}.cls-4{fill:#fcfbfb;}.cls-5{fill:#b12234;}.cls-6{fill:#fdfbfb;}.cls-7{fill:#fefefe;}.cls-8{fill:#b12133;}.cls-9{fill:#b01e30;}.cls-10{fill:#b73444;}.cls-11{fill:#c04c5a;}.cls-12{fill:#b73243;}.cls-13{fill:#38366a;}.cls-14{fill:#a90b1e;}.cls-15{fill:#aa0f22;}.cls-16{fill:#ac1427;}.cls-17{fill:#464575;}.cls-18{fill:#efeff3;}.cls-19{fill:#f0f0f4;}.cls-20{fill:#f1f1f5;}.cls-21{fill:#f2f2f5;}.cls-22{fill:#ebebf0;}.cls-23{fill:#eeeef2;}.cls-24{fill:#ba3849;}</style></defs><g id="Layer_2" data-name="Layer 2"><g id="Layer_1-2" data-name="Layer 1"><path class="cls-1" d="M0,212.93Q0,108.71,0,4.49A21.83,21.83,0,0,1,1,0H304q0,14.54.05,29.07l0,1.79q0,15.31,0,30.64c0,.49,0,1,0,1.47q0,14.61,0,29.21,0,15.36,0,30.74l0,30a2,2,0,0,0,0,1q0,15.09,0,30.18c0,.53.05,1,.07,1.58q0,13.64,0,27.28l-.37-.1c-2.16,0-4.33.07-6.49.07Zm21.1-53.82,6.15-4.27,6.24,4.28c-3.76-6.26,0-9.63,4.68-13-6.84,1.7-9.79-1.32-11-7.78-.42,7.5-5,8.62-11.56,7.57C22,151.23,22,151.23,20.72,158c-.07.38.27.84.42,1.25l-.63-.23c0,.08.09.21.14.21A2.36,2.36,0,0,0,21.1,159.11ZM31.92,73.06l.56.65-.11-1.12c-2.22-5.09-1.24-9.06,4.83-11.78-6.91,1.46-10.13-1.48-11.29-8.05-.78,7-4.5,9.12-11,8.1,5.93,2.87,7.65,6.66,4.32,12.81C23.76,69,27.86,69.67,31.92,73.06Zm189-.14,6.9-3.26,5.9,3.87C233,66,233,66,238.66,60.06c-7.38,2.52-9.86-1.39-11.35-7.15-.8,6.72-4.24,9.18-10.74,7.7A7.32,7.32,0,0,0,218.94,63c3.46,1.71,4.42,4.11,2.45,7.6A7.15,7.15,0,0,0,221,73a1.54,1.54,0,0,0-.36.25s.05.16.08.25Zm64.15,43,.2.59c0-.1.13-.26.1-.29a2.6,2.6,0,0,0-.4-.23c-2.07-5.19-1.43-9.43,5-12.2-7.1,1.46-10.33-1.52-11.46-8.14-.25,7.61-5.9,7.46-11.34,8,2.66,2.26,5.33,3.53,6.15,5.54.69,1.71-.78,4.29-1.29,6.48l.67,1.77c4-6.24,7.77-4.56,11.52-1.31C284.32,116.24,284.77,116,285.06,115.91Zm-179.1,8,0,0c-1.24-2.16-2.47-4.31-4.39-7.64.1,7.85-4.2,9.33-10.57,8.64,6.67,2.84,7.33,7.19,4.46,13.14,4.67-5.44,9-4.67,13.87-.24-4.23-6.25-1.29-9.85,4.47-12.74Zm39.84,56.82c4.86-5.55,9.16-4,13.8.13-3.7-6.16-1.82-10.09,4.14-13.3-7.67,2.4-9-3.24-11.65-8.91-.59,7.59-4.24,9.75-10.5,9.37C147.65,170.75,148.76,174.81,145.8,180.76Zm-43.61-21.08c-.6,7.3-4.78,8.95-11.12,8.33,6.81,2.88,7,7.23,4.14,13,4.68-5.14,9.1-5,14.08-.19-3.86-6.12-2-10,4.1-13.05C106.09,169.6,104.22,165.06,102.19,159.68ZM51.9,116.8c-.15,8-6.07,7.06-11.26,8,6.37,2.88,7.45,7.2,4.59,13.45,4.71-6.29,9-4.39,13.85-.41-4-6.16-1.78-10,4.1-13.11C56.48,126,52.84,123.87,51.9,116.8Zm119,.22c4.72-5.51,9.08-4.7,13.93,0-3.78-6.21-1.69-10.1,4.25-13.28-7.07,1.73-10.05-1.67-11.44-7.84-.76,7-5.07,8.28-10.91,8.2C172.63,106.86,174.48,110.67,170.94,117Zm42.79,7.53c-6.92,2.25-9.29-2-11-7.67-.55,7.26-4.63,8.82-11,8,6.31,3,7.82,7.07,4.33,13.24,4.87-5.14,9.2-5,13.68.42C208.32,130,208.32,130,213.73,124.55Zm-61.59-8.81c-.27,7.85-4.21,9.86-11.29,8.54,3.15,2.66,5.88,3.93,6.64,5.94.68,1.81-.82,4.43-1.58,7.68,2.79-1.82,4.7-3.06,6.72-4.39l6.94,4.5c-.73-3.07-2.26-5.77-1.59-7.71.73-2.09,3.52-3.45,5.61-5.31C155.74,124.24,155.74,124.24,152.14,115.74ZM65.38,60.83c6.61,2.89,7,7.34,4.66,12.91l6.37-4.35,6.23,4.28c-3.44-5.88-.9-9.65,4.61-13-7,1.48-9.82-1.75-11-8.13C75.46,59.23,72.3,62.08,65.38,60.83ZM238.3,17.62c-7.19,1.57-9.6-2.21-10.91-8-.89,6.45-4,9.3-11,8.1,7,3,6.75,7.6,3.19,14l7.94-5.37,6.44,4.34C231.08,24.81,232.41,20.82,238.3,17.62ZM33.72,116.53c-3.84-5.86-1.4-9.64,4.3-12.89-7.16,1.87-10-1.58-11.34-7.76-.94,6.8-5.07,8.32-11,8.19,6.38,2.77,7.35,7.05,3.45,13.26C26.94,112.63,26.94,112.63,33.72,116.53Zm82.09-98.77c6.18,2.94,6.94,7.11,4.85,12.55l6.09-4,6.5,4.33c-2.78-5.72-1.86-10,4.92-13.2-7.8,2.38-10.09-1.89-11.59-7.83C125.8,16.2,122.57,18.86,115.81,17.76Zm118.66,98.91c-2.5-5.65-1.45-9.88,5.09-12.22-9.25-3.74-9.25-3.74-11.77-9.08-.52,7.1-4,9.78-10.87,8.41,6.28,3.06,7.82,7.11,4.87,12.9l6.51-4.18Zm18.78,43.14c-.84,6.93-4.36,9.23-11.32,8,7.19,2.8,7.23,7.31,3.46,13.82l7.86-5.26,6.38,4.17c-3.11-5.85-1.3-9.67,4.71-12.66C257.9,168.69,254,166.8,253.25,159.81ZM52,160c-3,7.06-3,7.06-11.81,8.21,6.13,2.58,8.51,6.15,4.56,12.49,5.23-5.27,9.53-4.14,14.31.31-4.42-6.23-1.89-10,3.85-13.29C55.87,169.27,52.8,166.28,52,160Zm63.84-56.45c3.71,3.56,10.12,4.92,4.24,11.47l1.43.31,6.44-2.59,5.78,3.94c-2.77-5.86-1-9.87,5.07-13-7.16,1.73-10.15-1.53-11.48-8C127.08,103.4,121.74,103.09,115.83,103.53Zm137.59,13.6c-1.25,2.72-1.71,5.75-3.43,6.93s-4.77.63-7.23.83c5.14,2.85,7.32,6.37,4.84,12.25l5.85-3.63c1.14.76,2.22,1.49,3.32,2.19s2,1.19,3.31,2c-1.6-7-1.6-7,3.68-12.57C256.37,124,256.37,124,253.42,117.13ZM170.3,73.91c4.67-5.44,9-4.43,13.82,0-3.71-6-1.93-10,4.74-12.8-8.54-.92-8.54-.92-12.37-9-.14,7.67-4.05,9.71-10.69,8.88C173,63.71,172.89,68.14,170.3,73.91ZM82.38,116l1.39-.09c-3.28-5.83-.67-9.24,4.45-11.91-5.29-.84-10.57-.79-11.25-8.46-.29,7.91-4.8,9.09-11.14,8.42,6.72,2.88,7.49,7.19,4.94,12.81l6.43-4.26ZM270.13,73.23l1.52,0L278,69.49l6.26,4.24c-3.34-5.87-1.41-9.8,4.74-13-7.37,1.91-9.91-2.1-11.43-8-.47,7-4.2,9.1-10.84,8.13C272.4,63.77,274.68,67.36,270.13,73.23Zm-187.75-43,1.36-.22c-4.2-5.7-1.78-9.35,3.64-12.51-7,1.45-10-1.58-10.9-8-1.24,6-4,9.63-11.24,8.17,7.08,3,6.72,7.59,4.82,12.9l6.28-4.38ZM126.66,69.4l6.51,4.32c-2.74-5.58-1.51-9.85,4.6-13.11-7.3,1.94-9.83-1.81-11.15-7.85-.8,6.7-4.27,9.29-11.07,8.17,6.51,2.7,7.31,6.82,3.79,12.52l1.49,0Zm-94.57-39c-2.11-6-.79-10,5-12.83-6.95,1.51-10-1.59-11.28-8-.67,7.14-4.53,9-11.18,7.49,6,5.85,6,5.85,4.62,14C23.3,27.5,27.17,24.13,32.09,30.41Zm145-20.9c-.79,7.09-4.7,9.08-12,7.41,3.26,2.81,6,4.08,6.69,6.07s-.86,4.51-1.63,7.65l7-4.32,6.36,4.2c-3.28-5.9-1.09-9.76,4.62-13C181.35,18.87,178.07,16.28,177.12,9.51Zm19.16,171c2.4-1.45,4.49-3.74,6.41-3.61,2.32.15,4.5,2.36,8.15,4.51-4.28-6.24-3-10.49,3-13.75-7.13,1.7-9.87-1.69-11.05-8-.8,6.9-4.29,9.43-11.4,7.53C197.61,173,197.61,173,196.28,180.51ZM277.71,9.68c-.65,7-4.46,8.87-10.79,7.94,3.59,3.27,9.15,5.35,3.43,11.5l1.37.33,6.38-3,6,3.9c-.43-3.13-1.59-5.8-.85-7.77s3.37-3.07,5.17-4.56C281.9,19.06,278.85,16.11,277.71,9.68ZM47.1,87.63l-2.3,8.14,7-4.68,5.77,3.77c-2.26-5.68,0-9.53,5.26-12.69-7.2,2-9.76-1.72-11.22-7.8-.43,7.28-4.64,8.87-10.35,8.74Zm105.34,3.5L158.66,95c-2.8-5.86-.45-9.54,4.81-12.73-7.34,1.8-9.75-2-11-8.1-.71,6.67-3.86,9.63-11,8.28,6.45,2.9,7.17,7.21,5.12,12.66Zm111.39-8.07.15-1.32c-6.59,2.14-9.6-.83-10.78-7.35-.63,7.27-4.79,8.88-11.21,8.19,6.61,2.66,7.21,7,3.77,13.37l7.55-4.82,7,4.57c-1-3.3-1.66-5.62-2.37-8ZM202.91,91l5.48,3.81c-1.63-5.59-.2-9.63,5.69-12.44-7.18,1.77-9.93-1.91-11.45-7.88-.68,6.93-4.35,9-11,8,6.66,2.78,7.36,7.1,5.28,12.65Zm75.52,90.16c-1.1,6.08-3.74,9.71-11,8.26,6.37,3,7.07,7.19,5,12.55l6.12-4,6.87,4.56c-.88-3.35-1.53-5.79-2.14-8.09l5.78-4.58C281.94,190.93,279.59,187.1,278.43,181.14ZM145.16,52.46c4.66-5.91,9-4.46,13.82-.17-4-6.22-1.54-10,4-13.25-7,1.69-10-1.3-11-8-.81,7-4.39,9.37-11.3,8.41C147.83,42.11,147.83,46.49,145.16,52.46ZM26.5,181.24c-.08,7.88-5,8.4-11.63,7.66l7.05,5.64-2.3,8,7-4.65,6.1,4c-2.3-5.65-1.18-9.75,5.11-12.57C31.24,190.37,27.48,188.4,26.5,181.24Zm51.07-43.11c-.91,6.48-3.95,9.57-11.31,8.3,7.38,2.56,6.9,7.28,3.91,13.41L77.61,155l6.13,3.92c-2.83-6-.44-9.68,5.11-12.72C81.62,147.87,78.72,144.49,77.57,138.13Zm156.91,20.79,1.46,0c-3.67-5.75-2-9.67,4.16-12.78-7.63,2.34-10.11-1.7-11.49-7.8-.93,6.59-4.1,9.35-11.29,8.09,7.41,2.63,7.07,7.29,3.63,13.74l7.83-5.28Zm-67.35-12.56c6.61,2.72,7.14,7,3.62,13.48l7.64-4.9,6.91,4.6-2.23-7.93c2-1.61,3.9-3.22,5.84-4.83-6.39.88-9.55-1.88-10.54-8.46C177.16,144.7,174.26,147.91,167.13,146.36ZM268,146.31c6.39,2.89,7.25,7.16,5,12.78l6.1-4.25,6.32,4.34c-3.76-6.24-.19-9.71,4.63-13.12-7.11,1.86-9.9-1.44-11-8C278.08,144.86,275.05,147.82,268,146.31Zm-133.57,56c-4.89-6.43-.9-9.77,3.74-13.17-6.78,1.57-9.66-1.55-11-7.76-.65,7.06-4.38,9-11,7.94,6.26,2.86,7.36,7.07,4.58,13.06C125.45,197.2,129.5,197.71,134.41,202.28ZM177.47,182c-1,2.22-1.38,5.21-3.07,6.45s-4.58.61-7,.8c5.85,3,6.15,7.38,4.09,12.77l6.15-4.2,6.12,4.07c-3.35-6-.14-9.53,4.85-12.78C182.24,190.32,178.74,188.25,177.47,182ZM106.93,94.1l1.83.3c-3.28-5.92-.31-9.15,4.43-12.08-6.85,1.59-9.84-1.41-11.19-8.12C101.78,82,97.18,83,91,82.64c6.24,2.83,7.64,6.74,4.83,12.55l6.34-4.07ZM61.59,40c-6.28,1-9.21-2.25-10-9.53-1.64,3.78-2,6.79-3.71,8s-4.75.7-7.2.95c6.26,2.89,6.51,7.24,4.17,12.75l6.38-4.28,7,4.78-2.3-8.25Zm4.46,149.44c6.5,3,7,7.26,4.58,12.78l6.42-4.28,6.22,4.28c-2.81-5.78-1.22-9.85,4.77-13-6.87,1.54-10.05-1.2-11-7.9C76,188,72.79,190.69,66.05,189.39Zm151.19,0c4.82,3,8.12,5.93,4.66,12l6.41-3.33c1.75,1.21,3.59,2.47,6.23,4.27L233,194.37l5.69-4.66c-6.44.95-9.6-1.78-10.57-8.45C227.07,187.87,223.93,190.73,217.24,189.36ZM241.43,39.22l6.51,5.18c-.72,2.54-1.4,4.92-2.32,8.18l7-4.8,6.1,4.12c-3.08-5.9-.32-9.59,4.83-12.88-7.05,1.92-9.72-1.62-10.57-8.27C249.45,38.8,249.45,38.8,241.43,39.22Zm-50.31.23c7.31,2.46,6.58,7.2,3.73,13.36l7.49-5,6.94,4.76L207,44.39l6.6-5.4H205.3c-1-2.59-1.86-4.82-2.71-7C201.63,38.46,197.66,40.12,191.12,39.45Zm-74,107.16c4.51,2.76,8,5.73,4.78,11.73l6.23-3.27,5.26,3.16L135,158c-4.56-6.19.19-8.57,4-11.84-6.89,1.8-9.8-1.67-10.83-8.68C125.06,145.93,125.06,145.93,117.13,146.61ZM106.19,44.45l6-4.83c-6.74,1.31-9.42-2.19-10.75-8.28-.84,6.63-4.28,9.06-10.25,8.55l5.69,4.55-2.33,8,7-4.58,6.94,4.56C107.59,49.16,106.94,47,106.19,44.45Z"/><path class="cls-2" d="M0,368.88v-31H1c1.82.08,3.65.23,5.47.23q349.52,0,699,0c1.83,0,3.65-.15,5.48-.23h1v31c-1.34,0-2.67-.07-4-.07H4C2.66,368.81,1.33,368.86,0,368.88Z"/><path class="cls-3" d="M0,307.9v-31c1.66-.05,3.33-.13,5-.13H707c1.66,0,3.32.08,5,.13v31l-1.06-.18c-1.82-.1-3.64-.3-5.46-.3H6.51c-1.82,0-3.64.2-5.46.3Z"/><path class="cls-4" d="M712,214.93v31H0v-31c1.33.06,2.66.18,4,.18H299.45c1.49,0,3-.16,4.48-.24,1.66.08,3.31.24,5,.24H707C708.65,215.11,710.31,215,712,214.93Z"/><path class="cls-5" d="M1.05,307.72c1.82-.1,3.64-.3,5.46-.3H705.45c1.82,0,3.64.2,5.46.3L712,308.9v28l-1,1c-1.83.08-3.65.23-5.48.23q-349.5,0-699,0c-1.82,0-3.65-.15-5.47-.23l-1-1v-28Z"/><path class="cls-5" d="M0,245.92H712v29c-2.33,0-4.67,0-7,0H119.41q-59.7,0-119.41,0Z"/><path class="cls-5" d="M645,399.87H0v-29H712q0,13.25,0,26.49c0,1.33.5,3.13-2,2.5a19,19,0,0,0-4.17-.95q-28.34-.09-56.66,0A19,19,0,0,0,645,399.87Z"/><path class="cls-6" d="M304.06,122.92q0-15.37,0-30.74H708.49c1.16,0,2.32-.14,3.48-.22v31Z"/><path class="cls-3" d="M304,61.5q0-15.31,0-30.64H705.47c2.17,0,4.33.08,6.5.12V62c-2.14-.14-4.28-.41-6.42-.41Q504.79,61.51,304,61.5Z"/><path class="cls-7" d="M304,184.09q0-15.09,0-30.18l3-.3c1.49.06,3,.17,4.48.17h395c1.5,0,3-.14,4.48-.22l1,.39v30c-2,.07-4,.2-6,.2q-114.11,0-228.21,0Q390.89,184.14,304,184.09Z"/><path class="cls-5" d="M304,29.07Q304,14.53,304,0H712V29c-2.5,0-5,0-7.5,0Z"/><path class="cls-8" d="M712,92c-1.16.08-2.32.22-3.48.22H304q0-14.61,0-29.21H712Z"/><path class="cls-5" d="M304.06,213q0-13.63,0-27.28c2.33.05,4.66.13,7,.13H705.47c2.17,0,4.33.08,6.5.13v27Z"/><path class="cls-5" d="M711,153.56c-1.49.08-3,.22-4.48.22h-395c-1.49,0-3-.11-4.48-.17a4.17,4.17,0,0,0,0-.71v-18c0-8,0-8,7.86-8H712v25C711.63,152.49,711.3,153,711,153.56Z"/><path class="cls-5" d="M712,127H314.85c-7.86,0-7.86,0-7.86,8v18l-3,0,0-30L712,123Z"/><path class="cls-9" d="M712,370.88H0v-2c1.33,0,2.66-.07,4-.07H708c1.33,0,2.66.05,4,.07Z"/><path class="cls-10" d="M0,274.91q59.7,0,119.41,0H705c2.33,0,4.67,0,7,0v2c-1.67-.05-3.33-.13-5-.13H5c-1.66,0-3.33.08-5,.13Z"/><path class="cls-11" d="M712,185.94c-2.17-.05-4.33-.13-6.5-.13H311.06c-2.33,0-4.66-.08-7-.13,0-.53-.05-1-.07-1.58q86.89,0,173.78.06,114.11,0,228.21,0c2,0,4-.13,6-.2Z"/><path class="cls-9" d="M304.06,213l407.91,0v2c-1.66.06-3.32.18-5,.18H308.9c-1.66,0-3.31-.16-5-.24l-.24-2Z"/><path class="cls-12" d="M304,29.07l400.43,0c2.5,0,5,0,7.5,0v2c-2.17,0-4.33-.12-6.5-.12H304Z"/><path class="cls-13" d="M303.69,212.85l.24,2c-1.49.08-3,.24-4.48.24H4c-1.33,0-2.66-.12-4-.18v-2H297.2C299.36,212.92,301.53,212.87,303.69,212.85Z"/><path class="cls-14" d="M712,63H304.05c0-.49,0-1,0-1.47q200.76,0,401.52.07c2.14,0,4.28.27,6.42.41Z"/><path class="cls-12" d="M645,399.87a19,19,0,0,1,4.17-.95q28.32-.09,56.66,0a19,19,0,0,1,4.17.95Z"/><path class="cls-5" d="M711,153.56c.34-.53.67-1.07,1-1.61v2Z"/><path class="cls-15" d="M1.05,307.72,0,308.9v-1Z"/><path class="cls-15" d="M712,308.9l-1.06-1.18,1.06.18Z"/><path class="cls-16" d="M0,336.89l1,1H0Z"/><path class="cls-16" d="M711,337.89l1-1v1Z"/><path class="cls-17" d="M66,0h0Z"/><path class="cls-17" d="M2,0H2Z"/><path class="cls-18" d="M145.8,180.76c3-5.95,1.85-10-4.21-12.71,6.26.38,9.91-1.78,10.5-9.37,2.68,5.67,4,11.31,11.65,8.91-6,3.21-7.84,7.14-4.14,13.3C155,176.72,150.66,175.21,145.8,180.76Z"/><path class="cls-19" d="M102.19,159.68c2,5.38,3.9,9.92,11.2,8.1-6.13,3.1-8,6.93-4.1,13.05-5-4.76-9.4-5-14.08.19,2.89-5.78,2.67-10.13-4.14-13C97.41,168.63,101.59,167,102.19,159.68Z"/><path class="cls-20" d="M51.9,116.8c.94,7.07,4.58,9.21,11.28,8-5.88,3.14-8.13,6.95-4.1,13.11-4.82-4-9.14-5.88-13.85.41,2.86-6.25,1.78-10.57-4.59-13.45C45.83,123.86,51.75,124.78,51.9,116.8Z"/><path class="cls-20" d="M170.94,117c3.54-6.35,1.69-10.16-4.17-13,5.84.08,10.15-1.18,10.91-8.2,1.39,6.17,4.37,9.57,11.44,7.84-5.94,3.18-8,7.07-4.25,13.28C180,112.32,175.66,111.51,170.94,117Z"/><path class="cls-20" d="M213.73,124.55c-5.41,5.43-5.41,5.43-4,14-4.48-5.43-8.81-5.56-13.68-.42,3.49-6.17,2-10.24-4.33-13.24,6.37.84,10.45-.72,11-8C204.44,122.59,206.81,126.8,213.73,124.55Z"/><path class="cls-21" d="M152.14,115.74c3.6,8.5,3.6,8.5,11.45,9.25-2.09,1.86-4.88,3.22-5.61,5.31-.67,1.94.86,4.64,1.59,7.71l-6.94-4.5c-2,1.33-3.93,2.57-6.72,4.39.76-3.25,2.26-5.87,1.58-7.68-.76-2-3.49-3.28-6.64-5.94C147.93,125.6,151.87,123.59,152.14,115.74Z"/><path class="cls-21" d="M65.38,60.83c6.92,1.25,10.08-1.6,10.92-8.24,1.13,6.38,3.94,9.61,11,8.13-5.51,3.3-8,7.07-4.61,13l-6.23-4.28L70,73.74C72.33,68.17,72,63.72,65.38,60.83Z"/><path class="cls-22" d="M238.3,17.62c-5.89,3.2-7.22,7.19-4.39,13l-6.44-4.34-7.94,5.37c3.56-6.35,3.85-11-3.19-13.95,7,1.2,10.16-1.65,11-8.1C228.7,15.41,231.11,19.19,238.3,17.62Z"/><path class="cls-19" d="M33.72,116.53c-6.78-3.9-6.78-3.9-14.61.8,3.9-6.21,2.93-10.49-3.45-13.26,5.95.13,10.08-1.39,11-8.19,1.3,6.18,4.18,9.63,11.34,7.76C32.32,106.89,29.88,110.67,33.72,116.53Z"/><path class="cls-20" d="M106,123.94l7.88,1.19c-5.76,2.89-8.7,6.49-4.47,12.74-4.9-4.43-9.2-5.2-13.87.24,2.87-6,2.21-10.3-4.46-13.14,6.37.69,10.67-.79,10.57-8.64,1.92,3.33,3.15,5.48,4.39,7.64l-.55.5.41.1Z"/><path class="cls-22" d="M115.81,17.76c6.76,1.1,10-1.56,10.77-8.2,1.5,5.94,3.79,10.21,11.59,7.83-6.78,3.24-7.7,7.48-4.92,13.2l-6.5-4.33-6.09,4C122.75,24.87,122,20.7,115.81,17.76Z"/><path class="cls-19" d="M285.07,115.91c-.3.08-.75.33-.88.22-3.75-3.25-7.51-4.93-11.52,1.31l-.67-1.77c.51-2.19,2-4.77,1.29-6.48-.82-2-3.49-3.28-6.15-5.54,5.44-.55,11.09-.4,11.34-8,1.13,6.62,4.36,9.6,11.46,8.14-6.41,2.77-7.05,7-5,12.2Z"/><path class="cls-20" d="M234.47,116.67l-6.17-4.17-6.51,4.18c3-5.79,1.41-9.84-4.87-12.9,6.9,1.37,10.35-1.31,10.87-8.41,2.52,5.34,2.52,5.34,11.77,9.08C233,106.79,232,111,234.47,116.67Z"/><path class="cls-20" d="M253.25,159.81c.75,7,4.65,8.88,11.09,8.08-6,3-7.82,6.81-4.71,12.66l-6.38-4.17-7.86,5.26c3.77-6.51,3.73-11-3.46-13.82C248.89,169,252.41,166.74,253.25,159.81Z"/><path class="cls-20" d="M52,160c.81,6.3,3.88,9.29,10.91,7.72-5.74,3.29-8.27,7.06-3.85,13.29-4.78-4.45-9.08-5.58-14.31-.31,3.95-6.34,1.57-9.91-4.56-12.49C49,167,49,167,52,160Z"/><path class="cls-21" d="M115.83,103.53c5.91-.44,11.25-.13,11.48-7.79,1.33,6.42,4.32,9.68,11.48,8-6.1,3.1-7.84,7.11-5.07,13l-5.78-3.94-6.44,2.59-1.43-.31C126,108.45,119.54,107.09,115.83,103.53Z"/><path class="cls-21" d="M253.42,117.13c3,6.85,3,6.85,10.34,8-5.28,5.58-5.28,5.58-3.68,12.57-1.32-.78-2.33-1.35-3.31-2s-2.18-1.43-3.32-2.19l-5.85,3.63c2.48-5.88.3-9.4-4.84-12.25,2.46-.2,5.46.38,7.23-.83S252.17,119.85,253.42,117.13Z"/><path class="cls-20" d="M170.3,73.91c2.59-5.77,2.68-10.2-4.5-12.91,6.64.83,10.55-1.21,10.69-8.88,3.83,8.07,3.83,8.07,12.37,9-6.67,2.79-8.45,6.76-4.74,12.8C179.29,69.48,175,68.47,170.3,73.91Z"/><path class="cls-20" d="M82.38,116l-5.18-3.49-6.43,4.26c2.55-5.62,1.78-9.93-4.94-12.81,6.34.67,10.85-.51,11.14-8.42.68,7.67,6,7.62,11.25,8.46-5.12,2.67-7.73,6.08-4.45,11.91Z"/><path class="cls-21" d="M270.13,73.23c4.55-5.87,2.27-9.46-3.41-12.39,6.64,1,10.37-1.1,10.84-8.13,1.52,5.91,4.06,9.92,11.43,8-6.15,3.21-8.08,7.14-4.74,13L278,69.49l-6.34,3.79Z"/><path class="cls-22" d="M82.38,30.27l-6-4-6.28,4.38c1.9-5.31,2.26-9.92-4.82-12.9,7.26,1.46,10-2.15,11.24-8.17.89,6.42,3.85,9.45,10.9,8C82,20.7,79.54,24.35,83.74,30.05Z"/><path class="cls-21" d="M126.66,69.4l-5.83,4-1.49,0c3.52-5.7,2.72-9.82-3.79-12.52,6.8,1.12,10.27-1.47,11.07-8.17,1.32,6,3.85,9.79,11.15,7.85-6.11,3.26-7.34,7.53-4.6,13.11Z"/><path class="cls-22" d="M32.09,30.41c-4.92-6.28-8.79-2.91-12.79.68,1.42-8.18,1.42-8.18-4.62-14,6.65,1.51,10.51-.35,11.18-7.49,1.26,6.42,4.33,9.52,11.28,8C31.3,20.37,30,24.45,32.09,30.41Z"/><path class="cls-20" d="M221,73a7.15,7.15,0,0,1,.37-2.42c2-3.49,1-5.89-2.45-7.6a7.32,7.32,0,0,1-2.37-2.36c6.5,1.48,9.94-1,10.74-7.7,1.49,5.76,4,9.67,11.35,7.15-5.69,6-5.69,6-4.95,13.47l-5.9-3.87-6.9,3.26Z"/><path class="cls-22" d="M177.12,9.51c.95,6.77,4.23,9.36,11,8-5.71,3.23-7.9,7.09-4.62,13l-6.36-4.2-7,4.32c.77-3.14,2.27-5.77,1.63-7.65s-3.43-3.26-6.69-6.07C172.42,18.59,176.33,16.6,177.12,9.51Z"/><path class="cls-21" d="M196.28,180.51c1.33-7.56,1.33-7.56-4.87-13.32,7.11,1.9,10.6-.63,11.4-7.53,1.18,6.31,3.92,9.7,11.05,8-6.06,3.26-7.3,7.51-3,13.75-3.65-2.15-5.83-4.36-8.15-4.51C200.77,176.77,198.68,179.06,196.28,180.51Z"/><path class="cls-21" d="M31.92,73.06c-4.06-3.39-8.16-4-12.71.61,3.33-6.15,1.61-9.94-4.32-12.81,6.52,1,10.24-1.06,11-8.1,1.16,6.57,4.38,9.51,11.29,8.05-6.07,2.72-7.05,6.69-4.83,11.78Z"/><path class="cls-23" d="M277.71,9.68c1.14,6.43,4.19,9.38,10.74,8.34-1.8,1.49-4.46,2.66-5.17,4.56s.42,4.64.85,7.77l-6-3.9-6.38,3-1.37-.33c5.72-6.15.16-8.23-3.43-11.5C273.25,18.55,277.06,16.66,277.71,9.68Z"/><path class="cls-23" d="M47.1,87.63l-5.84-4.52c5.71.13,9.92-1.46,10.35-8.74,1.46,6.08,4,9.84,11.22,7.8-5.25,3.16-7.52,7-5.26,12.69L51.8,91.09l-7,4.68Z"/><path class="cls-23" d="M152.44,91.13l-5.91,4c2.05-5.45,1.33-9.76-5.12-12.66,7.18,1.35,10.33-1.61,11-8.28,1.27,6.13,3.68,9.9,11,8.1-5.26,3.19-7.61,6.87-4.81,12.73Z"/><path class="cls-23" d="M263.83,83.06,258,87.67c.71,2.41,1.39,4.73,2.37,8l-7-4.57L245.76,96c3.44-6.42,2.84-10.71-3.77-13.37,6.42.69,10.58-.92,11.21-8.19,1.18,6.52,4.19,9.49,10.78,7.35Z"/><path class="cls-23" d="M202.91,91l-6,4.18c2.08-5.55,1.38-9.87-5.28-12.65,6.66,1,10.33-1.11,11-8,1.52,6,4.27,9.65,11.45,7.88-5.89,2.81-7.32,6.85-5.69,12.44Z"/><path class="cls-19" d="M278.43,181.14c1.16,6,3.51,9.79,10.56,8.67l-5.78,4.58c.61,2.3,1.26,4.74,2.14,8.09l-6.87-4.56-6.12,4c2.11-5.36,1.41-9.59-5-12.55C274.69,190.85,277.33,187.22,278.43,181.14Z"/><path class="cls-18" d="M145.16,52.46c2.67-6,2.67-10.35-4.54-13.05,6.91,1,10.49-1.44,11.3-8.41,1,6.74,4,9.73,11,8-5.51,3.24-8,7-4,13.25C154.16,48,149.82,46.55,145.16,52.46Z"/><path class="cls-18" d="M26.5,181.24c1,7.16,4.74,9.13,11.33,8.1-6.29,2.82-7.41,6.92-5.11,12.57l-6.1-4-7,4.65,2.3-8-7.05-5.64C21.51,189.64,26.42,189.12,26.5,181.24Z"/><path class="cls-18" d="M77.57,138.13c1.15,6.36,4.05,9.74,11.28,8.05-5.55,3-7.94,6.69-5.11,12.72L77.61,155l-7.44,4.86c3-6.13,3.47-10.85-3.91-13.41C73.62,147.7,76.66,144.61,77.57,138.13Z"/><path class="cls-18" d="M234.48,158.92l-5.7-4.08L221,160.12c3.44-6.45,3.78-11.11-3.63-13.74,7.19,1.26,10.36-1.5,11.29-8.09,1.38,6.1,3.86,10.14,11.49,7.8-6.16,3.11-7.83,7-4.16,12.78Z"/><path class="cls-19" d="M167.13,146.36c7.13,1.55,10-1.66,11.24-8,1,6.58,4.15,9.34,10.54,8.46-1.94,1.61-3.88,3.22-5.84,4.83l2.23,7.93-6.91-4.6-7.64,4.9C174.27,153.39,173.74,149.08,167.13,146.36Z"/><path class="cls-19" d="M21.14,159.22c-.15-.42-.49-.88-.42-1.26,1.26-6.73,1.27-6.73-5.16-12.08,6.6,1.05,11.14-.07,11.56-7.57,1.26,6.46,4.21,9.48,11.05,7.78-4.64,3.4-8.44,6.77-4.68,13l-6.24-4.28-6.15,4.27Z"/><path class="cls-18" d="M268,146.31c7.07,1.51,10.1-1.45,11-8.29,1.13,6.6,3.92,9.9,11,8-4.82,3.41-8.39,6.88-4.63,13.12l-6.32-4.34-6.1,4.25C275.23,153.47,274.37,149.2,268,146.31Z"/><path class="cls-18" d="M134.41,202.28c-4.91-4.57-9-5.08-13.66.07,2.78-6,1.68-10.2-4.58-13.06,6.61,1.1,10.34-.88,11-7.94,1.33,6.21,4.21,9.33,11,7.76C133.51,192.51,129.52,195.85,134.41,202.28Z"/><path class="cls-19" d="M177.47,182c1.27,6.21,4.77,8.28,11.19,7.11-5,3.25-8.2,6.81-4.85,12.78l-6.12-4.07-6.15,4.2c2.06-5.39,1.76-9.82-4.09-12.77,2.37-.19,5.32.4,7-.8S176.5,184.26,177.47,182Z"/><path class="cls-23" d="M106.93,94.1l-4.75-3-6.34,4.07c2.81-5.81,1.41-9.72-4.83-12.55,6.17.4,10.77-.66,11-8.44,1.35,6.71,4.34,9.71,11.19,8.12-4.74,2.93-7.71,6.16-4.43,12.08Z"/><path class="cls-19" d="M61.59,40l-5.67,4.38,2.3,8.25-7-4.78-6.38,4.28c2.34-5.51,2.09-9.86-4.17-12.75,2.45-.25,5.44.28,7.2-.95s2.07-4.18,3.71-8C52.38,37.7,55.31,41,61.59,40Z"/><path class="cls-23" d="M66.05,189.39c6.74,1.3,9.93-1.44,11-8.12,1,6.7,4.17,9.44,11,7.9-6,3.15-7.58,7.22-4.77,13l-6.22-4.28-6.42,4.28C73.08,196.65,72.55,192.41,66.05,189.39Z"/><path class="cls-18" d="M217.24,189.36c6.69,1.37,9.83-1.49,10.88-8.1,1,6.67,4.13,9.4,10.57,8.45L233,194.37l1.54,7.91c-2.64-1.8-4.48-3.06-6.23-4.27l-6.41,3.33C225.36,195.29,222.06,192.4,217.24,189.36Z"/><path class="cls-20" d="M241.43,39.22c8-.42,8-.42,11.58-8.47.85,6.65,3.52,10.19,10.57,8.27-5.15,3.29-7.91,7-4.83,12.88l-6.1-4.12-7,4.8c.92-3.26,1.6-5.64,2.32-8.18Z"/><path class="cls-20" d="M191.12,39.45c6.54.67,10.51-1,11.47-7.51.85,2.23,1.71,4.46,2.71,7.05h8.32l-6.6,5.4,2.26,8.17-6.94-4.76-7.49,5C197.7,46.65,198.43,41.91,191.12,39.45Z"/><path class="cls-18" d="M117.13,146.61c7.93-.68,7.93-.68,11-9.15,1,7,3.94,10.48,10.83,8.68-3.79,3.27-8.54,5.65-4,11.84l-1.56.25-5.26-3.16-6.23,3.27C125.13,152.34,121.64,149.37,117.13,146.61Z"/><path class="cls-21" d="M106.19,44.45c.75,2.52,1.4,4.71,2.36,8l-6.94-4.56-7,4.58,2.33-8L91.2,39.89c6,.51,9.41-1.92,10.25-8.55,1.33,6.09,4,9.59,10.75,8.28Z"/><path class="cls-24" d="M304,152.92l3,0a4.17,4.17,0,0,1,0,.71l-3,.3A2,2,0,0,1,304,152.92Z"/><path class="cls-21" d="M32.37,72.59l.11,1.12c-.19-.21-.37-.43-.56-.65Z"/><path class="cls-19" d="M21.1,159.11a2.36,2.36,0,0,1-.45.08s-.09-.13-.14-.21l.63.23Z"/><path class="cls-20" d="M220.91,72.92l-.17.57c0-.09-.11-.22-.08-.25A1.54,1.54,0,0,1,221,73Z"/><path class="cls-19" d="M285,116a2.6,2.6,0,0,1,.4.23s-.06.19-.1.29c-.06-.2-.13-.39-.19-.59Z"/><path class="cls-1" d="M106,123.94l-.1.63-.41-.1.55-.5Z"/></g></g></svg>