<?xml version="1.0" encoding="UTF-8"?>
<svg width="33px" height="40px" viewBox="0 0 33 40" version="1.1" xmlns="http://www.w3.org/2000/svg" xmlns:xlink="http://www.w3.org/1999/xlink">
    <!-- Generator: Sketch 62 (91390) - https://sketch.com -->
    <title>Location</title>
    <desc>Created with Sketch.</desc>
    <g id="AMASS-Final" stroke="none" stroke-width="1" fill="none" fill-rule="evenodd">
        <g id="STORYTELLER" transform="translate(-470.000000, -2215.000000)" fill="#000000">
            <g id="map" transform="translate(0.000000, 2000.000000)">
                <g id="MAP" transform="translate(162.000000, 0.000000)">
                    <path d="M324.157834,215 C331.967454,215 340.315668,220.711129 340.315668,230.552581 C340.315668,240.149194 324.157834,254.919355 324.157834,254.919355 C324.157834,254.919355 308,240.149194 308,230.552581 C308,220.711129 316.348214,215 324.157834,215 Z M324.157834,225.645161 C321.183446,225.645161 318.771889,228.028347 318.771889,230.967742 C318.771889,233.907137 321.183446,236.290323 324.157834,236.290323 C327.132222,236.290323 329.543779,233.907137 329.543779,230.967742 C329.543779,228.028347 327.132222,225.645161 324.157834,225.645161 Z" id="Location"></path>
                </g>
            </g>
        </g>
    </g>
</svg>