<svg xmlns="http://www.w3.org/2000/svg" viewBox="0 0 1619.88 1062"><defs><style>.cls-1{fill:#222;stroke:#fff;stroke-linecap:round;stroke-linejoin:round;stroke-width:10px;}</style></defs><g id="Layer_2" data-name="Layer 2"><g id="Layer_1-2" data-name="Layer 1"><g id="HtqeN2.tif"><path class="cls-1" d="M208.91,1057c-23.33,0-43.84-.63-62.7-1.92-29.48-2-66.43-7.76-90.7-34.4-15.82-17.37-26.63-35.74-32.13-54.6-4-13.61-7.32-27.41-10-41-.49-2.47-1-4.93-1.49-7.4-2.67-13.16-5.71-28.07-6.26-44.06-.92-26.54-.67-53-.42-78.62q.07-7.74.14-15.47c.17-22.15.67-41.6,1.55-59.47.73-15,1.82-30,2.87-44.53.49-6.76,1-13.52,1.44-20.28q.82-12.15,1.61-24.29c.9-13.77,1.83-28,2.83-42.08,1.45-20.51,3.06-41,4.43-58.35.53-6.57,1.11-13.14,1.68-19.5,1-11.07,1.91-21.52,2.54-32,.91-15.08,1.56-30.63,2.19-45.66q.43-10.53.91-21.05c.11-2.49.26-5,.4-7.47.23-4,.46-7.82.5-11.21.05-4.53.14-9.05.23-13.58.26-12.37.49-24.05-.07-35.25-.82-16.34-2.36-32.7-4-50-.48-5.15-1-10.3-1.43-15.45-.71-7.83-1.69-16.13-3-25.36-.95-6.73-2-13.46-3.14-20.58q-1.17-7.37-2.29-14.75c-.79-5.26-1.5-10.46-2.19-15.48-.37-2.68-.73-5.36-1.11-8-.49-3.5-1.09-7.15-1.73-11-1.62-9.85-3.45-21-4-32.95-.55-13.1.93-25,2.24-35.52.25-2,.5-4,.73-6C11.32,86.28,23.16,64.3,42.84,46.12,62.07,28.37,88.5,18.05,121.39,15.45l4.61-.37c16-1.28,32.61-2.6,49.82-2.6h.76c54.68.13,126.66.42,198.46,1.57,26.33.42,52.85,1.34,78.51,2.22,20.37.7,41.44,1.42,62,1.89,29.84.67,60.36,1,89.87,1.24q17.07.15,34.13.34l11.33.13c15.76.19,32.07.39,48,.39l16.38,0c36.11-.07,73.45-.14,110-.69,20.65-.31,41.88-1.1,62.41-1.87q12.52-.47,25.05-.91c15.17-.51,30.1-1.1,42.7-1.62l34.47-1.44,33.28-1.4q29.92-1.21,59.85-2.37l39-1.51q27.51-1.05,55-2.13c6.29-.25,12.76-.55,19-.84l9-.4c.68,0,1.36,0,2,0h123.17q.88,0,1.77,0c3.58.14,7.17.25,10.76.37,8.45.26,17.2.53,26.15,1.14l11.61.79c21.9,1.49,44.55,3,66.94,5.27,30.48,3.06,55.36,9.16,76.08,18.64,25.86,11.84,44.71,28.9,56,50.7,18,34.63,22.91,69.63,25.37,99.31a278.88,278.88,0,0,1,.49,29.24c-.09,4.3-.17,8.35-.12,12.17.66,58.27-1.74,107-7.56,153.28-1.17,9.32-1.67,19.24-2.19,29.74-.26,5.24-.53,10.66-.89,16.18-.21,3.23-.44,6.46-.67,9.69-.33,4.72-.64,9.17-.91,13.65-.44,7.2-1,14.31-1.54,21.19-1.17,14.92-2.27,29-2.12,42.48.35,30.7,1.78,62.31,3.16,92.88q.53,11.4,1,22.81c.24,5.56,1,11.76,1.71,18.32.37,3.24.75,6.6,1.1,10.06q1,9.67,2,19.35c1.23,12.05,2.51,24.51,3.72,36.81.52,5.31,1,10.58,1.41,15.67.54,6.37,1.06,12.39,1.69,18.36.65,6.13,1.38,12.23,2.15,18.69,1.26,10.46,2.55,21.26,3.48,32.31,1,11.74,3.15,57.18,3.92,82.41a239.3,239.3,0,0,1-1.48,35.56c-.44,3.69-.94,7-1.54,10.23l-.79,4.23c-2.49,13.32-5.06,27.08-9.07,41.48a111.13,111.13,0,0,1-29.42,50.51c-16.31,16.14-38.34,26-63.7,28.68-19.64,2-40.69,3.52-68.26,4.81-19.62.92-39.11.93-56.3.94l-28.45,0q-20.46,0-40.93,0c-26.76,0-62,0-97.39-.38-28.57-.26-57.41-1-85.31-1.72-13-.34-26.45-.68-39.64-1q-42.33-.95-84.68-1.84l-29.41-.63q-19.57-.42-39.16-.9c-29.51-.7-60-1.42-89.92-1.78-16-.19-32.93-.28-53.29-.28-16.14,0-32.59,0-48.51.11l-13.25,0c-32.57.1-65.74.41-97.83.71l-9.76.09c-17.52.16-35.65.33-53.23.81-20.15.54-40.69,1.23-60.55,1.89q-14.53.48-29.06,1l-28,.87c-15.22.47-30.95,1-46.38,1.48-13.71.46-27.7,1-41.22,1.51-27.5,1-55.94,2.12-84.13,2.73l-14,.32C250.11,1056.52,229.47,1057,208.91,1057Z"/></g></g></g></svg>