<svg width="16" height="20" viewBox="0 0 16 20" fill="none" xmlns="http://www.w3.org/2000/svg">
<path d="M10.7007 8.12435C10.7007 9.69578 9.41496 10.9815 7.84353 10.9815C6.7483 10.9815 5.79591 10.3624 5.31972 9.45769C5.08163 9.07673 4.98639 8.60054 4.98639 8.12435C4.98639 6.55293 6.27211 5.26721 7.84353 5.26721C9.41496 5.26721 10.7007 6.55293 10.7007 8.12435Z" fill="#222222"/>
<path d="M7.84353 19.7434C7.55781 19.7434 7.27209 19.6006 7.08162 19.3625L2.08162 12.6006C1.31972 11.553 0.843528 10.4577 0.605433 9.31488C0.557814 8.93393 0.510193 8.50536 0.510193 8.12441C0.510193 4.07679 3.79591 0.791077 7.84353 0.791077C11.8911 0.791077 15.1769 4.07679 15.1769 8.12441C15.1769 8.50536 15.1292 8.88631 15.0816 9.31488C14.8911 10.4577 14.3673 11.6006 13.6054 12.6006L8.60543 19.3625C8.41495 19.6006 8.12924 19.7434 7.84353 19.7434ZM7.84353 2.69584C4.84353 2.69584 2.41495 5.12441 2.41495 8.12441C2.41495 8.41012 2.46257 8.64821 2.51019 8.98155C2.65305 9.83869 3.034 10.6958 3.65305 11.5054L7.89114 17.2196L12.1292 11.5054C12.7007 10.6958 13.0816 9.88631 13.2721 8.98155C13.3197 8.69583 13.3673 8.41012 13.3673 8.12441C13.2721 5.12441 10.8435 2.69584 7.84353 2.69584Z" fill="#222222"/>
</svg>
