<svg xmlns="http://www.w3.org/2000/svg" viewBox="0 0 47.27 34.86"><g id="Layer_2" data-name="Layer 2"><g id="Layer_1-2" data-name="Layer 1"><path d="M19.63,5.86a14,14,0,0,0-8.55,3q-3.95,3-3.95,7.06c0,1.63.65,2.44,2,2.44A8.66,8.66,0,0,0,10.84,18a10.62,10.62,0,0,1,2.2-.29,7.36,7.36,0,0,1,5.05,2.17,7.71,7.71,0,0,1,2.37,6A9.08,9.08,0,0,1,18,32.2a8.61,8.61,0,0,1-6.69,2.66A10.07,10.07,0,0,1,3.12,31Q0,27.21,0,20.36,0,10.94,5.74,5.59A20.58,20.58,0,0,1,19.63,0Zm26.81,0A14.4,14.4,0,0,0,38,8.76c-2.72,1.94-4.07,4.31-4.07,7.11,0,1.63.65,2.44,2,2.44A8.79,8.79,0,0,0,37.65,18a10.62,10.62,0,0,1,2.19-.29A7.15,7.15,0,0,1,45,19.92a7.91,7.91,0,0,1,2.3,5.91,9.09,9.09,0,0,1-2.45,6.37,8.58,8.58,0,0,1-6.69,2.66A10.07,10.07,0,0,1,29.93,31q-3.12-3.83-3.12-10.67,0-9.42,5.73-14.77A20.63,20.63,0,0,1,46.44,0Z"/></g></g></svg>